<?xml version="1.0" encoding="utf-8"?>
<!-- Generator: Adobe Illustrator 27.5.0, SVG Export Plug-In . SVG Version: 6.00 Build 0)  -->
<svg version="1.1" id="Layer_1" xmlns="http://www.w3.org/2000/svg" xmlns:xlink="http://www.w3.org/1999/xlink" x="0px" y="0px"
	 viewBox="0 0 1200 900" style="enable-background:new 0 0 1200 900;" xml:space="preserve">
<rect style="fill:#FFFFFF;" width="1200" height="900"/>
<g>
	<g>
		<path style="fill:#FFFBE9;" d="M1116.623,716.438c-6.703,43.949-24.873,85.945-49.724,124.05
			c-4.551,6.985-9.333,13.843-14.307,20.555H157.106c-4.505-6.614-8.863-13.486-13.05-20.555
			c-25.18-42.525-44.117-92.113-51.19-134.437c-11.792-70.589,4.207-134.138,52.354-189.385
			c26.788-30.737,59.919-46.113,96.254-63.006C184.129,285.773,360.35,137.586,515.713,89.697
			c213.683-65.865,558.305-19.101,569.585,242.464c2.85,65.997-10.064,127.163-55.596,178.821c0.914-0.235,1.676-1.703,2.375-2.301
			C1103.667,547.285,1127.767,643.368,1116.623,716.438z"/>
		<rect x="72.893" y="840.487" style="fill:#545454;" width="1054.214" height="20.555"/>
	</g>
	<g>
		<g>
			<g>
				<g>
					<path style="fill:#92A32B;" d="M374.18,406.628l-38.654,6.149c6.435,13.829,4.159,29.091,0.991,42.894
						c13.424,0.442,27.072,5.928,40.146,2.635C383.116,442.405,379.928,422.671,374.18,406.628z"/>
					<path style="fill:#BEE41B;" d="M375.937,402.235l-38.654,6.149c6.435,13.829,4.158,29.091,0.991,42.894
						c13.424,0.443,27.072,5.928,40.146,2.635C384.872,438.012,381.685,418.279,375.937,402.235z"/>
				</g>
				<path style="fill:#92A32B;" d="M347.28,419.763c7.416-2.037,14.955-3.028,22.643-3.048c0.944-0.002,0.944-1.466,0-1.464
					c-7.815,0.02-15.494,1.03-23.033,3.101C345.981,418.602,346.368,420.014,347.28,419.763L347.28,419.763z"/>
				<path style="fill:#92A32B;" d="M349.036,425.473c9.184-2.591,18.682-3.552,28.108-4.831c0.932-0.126,0.534-1.537-0.389-1.412
					c-9.426,1.278-18.924,2.24-28.108,4.831C347.74,424.317,348.126,425.729,349.036,425.473L349.036,425.473z"/>
				<path style="fill:#92A32B;" d="M347.524,431.208c8.816-0.529,17.1-3.898,25.668-5.736c0.923-0.198,0.531-1.609-0.389-1.411
					c-8.432,1.809-16.605,5.163-25.279,5.683C346.586,429.801,346.581,431.265,347.524,431.208L347.524,431.208z"/>
				<path style="fill:#92A32B;" d="M351.672,435.574c9.06-2.263,18.145-4.425,27.23-6.588c0.918-0.219,0.529-1.631-0.389-1.412
					c-9.084,2.163-18.169,4.325-27.23,6.588C350.367,434.391,350.755,435.803,351.672,435.574L351.672,435.574z"/>
			</g>
			<g>
				<g>
					<path style="fill:#92A32B;" d="M799.453,159.984l35.052,11.694c-8.129,11.887-8.364,26.453-7.545,39.797
						c-12.571-1.66-26.129,1.342-37.797-3.743C785.607,191.925,791.623,174.038,799.453,159.984z"/>
					<path style="fill:#FDE427;" d="M798.494,155.621l35.052,11.695c-8.129,11.887-8.365,26.453-7.545,39.797
						c-12.571-1.66-26.129,1.341-37.797-3.743C784.65,187.563,790.664,169.676,798.494,155.621z"/>
				</g>
				<path style="fill:#92A32B;" d="M822.478,176.37c-6.593-3.042-13.46-5.129-20.618-6.335c-0.879-0.148-0.653-1.512,0.226-1.363
					c7.276,1.225,14.272,3.351,20.973,6.443C823.867,175.488,823.291,176.744,822.478,176.37L822.478,176.37z"/>
				<path style="fill:#92A32B;" d="M819.961,181.417c-8.154-3.831-16.851-6.193-25.434-8.839c-0.848-0.262-0.259-1.513,0.581-1.255
					c8.582,2.646,17.28,5.008,25.433,8.839C821.347,180.54,820.77,181.796,819.961,181.417L819.961,181.417z"/>
				<path style="fill:#92A32B;" d="M820.485,186.992c-8.129-1.854-15.326-6.27-23.021-9.304c-0.829-0.327-0.246-1.581,0.58-1.255
					c7.574,2.986,14.668,7.372,22.667,9.195C821.576,185.826,821.354,187.19,820.485,186.992L820.485,186.992z"/>
				<path style="fill:#92A32B;" d="M815.948,190.418c-8.089-3.506-16.217-6.922-24.344-10.339c-0.822-0.346-0.241-1.6,0.581-1.255
					c8.127,3.417,16.255,6.833,24.343,10.339C817.346,189.517,816.766,190.773,815.948,190.418L815.948,190.418z"/>
			</g>
			<g>
				<g>
					<path style="fill:#16B1B5;" d="M346.121,231.944l-38.655,6.15c6.436,13.829,4.159,29.091,0.992,42.894
						c13.424,0.443,27.072,5.928,40.146,2.636C355.056,267.721,351.869,247.987,346.121,231.944z"/>
					<path style="fill:#46F2F2;" d="M347.878,227.551l-38.654,6.149c6.435,13.83,4.158,29.092,0.991,42.894
						c13.424,0.443,27.072,5.928,40.145,2.636C350.017,264.241,351.189,244.915,347.878,227.551z"/>
				</g>
				<path style="fill:#16B1B5;" d="M321.354,247.422c5.708-2.037,11.51-3.028,17.428-3.048c0.727-0.002,0.727-1.466,0-1.464
					c-6.015,0.02-11.926,1.031-17.727,3.1C320.355,246.26,320.652,247.672,321.354,247.422L321.354,247.422z"/>
				<path style="fill:#16B1B5;" d="M322.706,253.131c7.069-2.59,14.379-3.553,21.634-4.831c0.718-0.126,0.411-1.537-0.299-1.412
					c-7.255,1.279-14.566,2.241-21.634,4.831C321.709,251.976,322.006,253.388,322.706,253.131L322.706,253.131z"/>
				<path style="fill:#16B1B5;" d="M321.543,258.867c6.785-0.529,13.162-3.898,19.756-5.736c0.71-0.198,0.409-1.609-0.3-1.412
					c-6.489,1.809-12.78,5.163-19.456,5.683C320.821,257.459,320.816,258.923,321.543,258.867L321.543,258.867z"/>
				<path style="fill:#16B1B5;" d="M324.735,263.233c6.973-2.263,13.966-4.425,20.958-6.588c0.707-0.219,0.407-1.63-0.299-1.412
					c-6.992,2.163-13.985,4.325-20.958,6.588C323.73,262.05,324.03,263.462,324.735,263.233L324.735,263.233z"/>
			</g>
			<g>
				<g>
					<path style="fill:#92A32B;" d="M433.282,232.712l-38.654,6.149c6.435,13.829,4.158,29.091,0.991,42.894
						c13.424,0.443,27.073,5.928,40.146,2.636C442.217,268.489,439.03,248.756,433.282,232.712z"/>
					<path style="fill:#BEE41B;" d="M435.039,228.32l-38.654,6.149c6.435,13.829,4.158,29.091,0.991,42.894
						c13.424,0.443,27.073,5.928,40.146,2.636C443.974,264.097,440.787,244.363,435.039,228.32z"/>
				</g>
				<path style="fill:#92A32B;" d="M406.381,245.848c7.417-2.037,14.955-3.028,22.644-3.048c0.944-0.002,0.944-1.466,0-1.464
					c-7.815,0.02-15.494,1.03-23.033,3.101C405.084,244.686,405.47,246.099,406.381,245.848L406.381,245.848z"/>
				<path style="fill:#92A32B;" d="M408.138,251.557c9.184-2.591,18.682-3.553,28.108-4.831c0.932-0.126,0.534-1.537-0.389-1.412
					c-9.426,1.279-18.924,2.241-28.108,4.831C406.842,250.402,407.228,251.814,408.138,251.557L408.138,251.557z"/>
				<path style="fill:#92A32B;" d="M406.626,257.293c8.815-0.529,17.1-3.898,25.667-5.736c0.923-0.198,0.531-1.609-0.389-1.412
					c-8.431,1.809-16.604,5.163-25.278,5.684C405.688,255.885,405.683,257.349,406.626,257.293L406.626,257.293z"/>
				<path style="fill:#92A32B;" d="M410.774,261.659c9.06-2.263,18.145-4.425,27.229-6.588c0.918-0.219,0.529-1.63-0.389-1.412
					c-9.085,2.163-18.17,4.325-27.23,6.588C409.469,260.476,409.857,261.888,410.774,261.659L410.774,261.659z"/>
			</g>
			<g>
				<g>
					<path style="fill:#D3B81A;" d="M299.965,366.741l-33.383,1.757c4.389,14.035-1.104,30.371,4.546,44.671
						c9.254-1.126,21.461-0.414,30.462-3.534C302.276,396.696,304.173,378.732,299.965,366.741z"/>
					<path style="fill:#FDE427;" d="M302.601,363.227l-33.383,1.757c4.389,14.035-1.104,30.372,4.546,44.671
						c9.254-1.127,21.461-0.414,30.462-3.534C304.912,393.182,306.809,375.218,302.601,363.227z"/>
				</g>
				<path style="fill:#D3B81A;" d="M276.019,378.913c1.948,0.829,4.742-0.03,6.71-0.394c3.005-0.555,5.993-1.343,9.031-1.702
					c0.926-0.109,0.937-1.574,0-1.464c-2.684,0.318-5.329,0.95-7.977,1.476c-1.368,0.272-2.738,0.527-4.118,0.725
					c-0.796,0.114-2.125,0.426-2.907,0.094C275.9,377.283,275.153,378.544,276.019,378.913L276.019,378.913z"/>
				<path style="fill:#D3B81A;" d="M274.193,384.282c8.274-0.949,16.342-3.074,24.35-5.296c0.909-0.252,0.522-1.665-0.389-1.412
					c-7.876,2.184-15.823,4.311-23.961,5.244C273.266,382.925,273.256,384.39,274.193,384.282L274.193,384.282z"/>
				<path style="fill:#D3B81A;" d="M276.828,388.235c4.539-0.609,8.914-2.093,13.371-3.1c0.921-0.208,0.53-1.619-0.389-1.412
					c-4.321,0.977-8.58,2.458-12.981,3.048C275.906,386.895,275.895,388.361,276.828,388.235L276.828,388.235z"/>
				<path style="fill:#D3B81A;" d="M277.952,390.508c0.573,0.914,1.929,0.802,2.856,0.738c1.93-0.133,3.851-0.569,5.732-0.997
					c4.044-0.921,8.065-2.052,12.003-3.357c0.892-0.296,0.51-1.71-0.389-1.412c-3.308,1.097-6.674,2.039-10.054,2.888
					c-1.917,0.483-3.848,0.921-5.8,1.234c-0.441,0.07-2.875,0.498-3.083,0.166C278.717,388.971,277.45,389.705,277.952,390.508
					L277.952,390.508z"/>
				<path style="fill:#D3B81A;" d="M279.27,391.965c-0.451,0.708-0.886,0.78-0.978,1.687c-0.04,0.396,0.363,0.734,0.732,0.732
					c4.881-0.033,9.697-0.881,14.248-2.662c0.869-0.34,0.491-1.756-0.389-1.412c-4.436,1.735-9.1,2.577-13.859,2.609
					c0.244,0.244,0.488,0.488,0.732,0.732c0.02-0.204,0.653-0.752,0.778-0.948C281.043,391.905,279.775,391.171,279.27,391.965
					L279.27,391.965z"/>
				<path style="fill:#D3B81A;" d="M283.924,396.041c2.433,1.626,5.963,0.997,8.714,0.978c0.944-0.007,0.944-1.471,0-1.464
					c-2.458,0.017-5.812,0.667-7.975-0.778C283.876,394.25,283.144,395.519,283.924,396.041L283.924,396.041z"/>
			</g>
			<g>
				<g>
					<path style="fill:#D3B81A;" d="M945.12,297.186l-33.383,1.757c4.39,14.035-1.104,30.372,4.545,44.671
						c9.254-1.127,21.461-0.414,30.462-3.534C947.432,327.142,949.33,309.178,945.12,297.186z"/>
					<path style="fill:#FDE427;" d="M947.757,293.672l-33.384,1.757c4.39,14.035-1.103,30.372,4.546,44.671
						c9.254-1.127,21.461-0.414,30.462-3.534C950.068,323.628,951.965,305.664,947.757,293.672z"/>
				</g>
				<path style="fill:#D3B81A;" d="M921.175,309.358c1.948,0.829,4.741-0.03,6.71-0.394c3.005-0.555,5.993-1.342,9.031-1.702
					c0.926-0.11,0.937-1.575,0-1.464c-2.684,0.318-5.329,0.95-7.977,1.477c-1.368,0.271-2.738,0.527-4.118,0.725
					c-0.796,0.114-2.125,0.427-2.906,0.095C921.055,307.729,920.309,308.989,921.175,309.358L921.175,309.358z"/>
				<path style="fill:#D3B81A;" d="M919.348,314.728c8.274-0.948,16.343-3.075,24.351-5.296c0.908-0.252,0.522-1.665-0.389-1.412
					c-7.876,2.185-15.823,4.311-23.961,5.244C918.422,313.37,918.411,314.836,919.348,314.728L919.348,314.728z"/>
				<path style="fill:#D3B81A;" d="M921.984,318.681c4.538-0.609,8.914-2.093,13.37-3.101c0.921-0.208,0.53-1.619-0.389-1.412
					c-4.322,0.977-8.581,2.458-12.982,3.048C921.062,317.341,921.05,318.806,921.984,318.681L921.984,318.681z"/>
				<path style="fill:#D3B81A;" d="M923.108,320.953c0.573,0.914,1.929,0.802,2.856,0.738c1.931-0.133,3.851-0.569,5.732-0.998
					c4.044-0.921,8.066-2.051,12.003-3.357c0.891-0.295,0.51-1.71-0.389-1.411c-3.309,1.096-6.675,2.038-10.054,2.888
					c-1.917,0.482-3.848,0.921-5.801,1.234c-0.441,0.071-2.874,0.498-3.083,0.167C923.873,319.417,922.606,320.151,923.108,320.953
					L923.108,320.953z"/>
				<path style="fill:#D3B81A;" d="M924.426,322.411c-0.451,0.708-0.886,0.78-0.978,1.687c-0.04,0.396,0.364,0.735,0.732,0.732
					c4.881-0.033,9.697-0.881,14.248-2.661c0.869-0.34,0.491-1.756-0.389-1.412c-4.436,1.735-9.099,2.577-13.859,2.609
					c0.244,0.244,0.488,0.488,0.732,0.732c0.021-0.204,0.654-0.752,0.779-0.948C926.199,322.351,924.932,321.617,924.426,322.411
					L924.426,322.411z"/>
				<path style="fill:#D3B81A;" d="M929.08,326.486c2.433,1.626,5.964,0.997,8.714,0.978c0.943-0.007,0.944-1.471,0-1.464
					c-2.458,0.017-5.812,0.667-7.976-0.779C929.032,324.696,928.299,325.965,929.08,326.486L929.08,326.486z"/>
			</g>
			<g>
				<g>
					<path style="fill:#D3B81A;" d="M595.871,315.18l-33.383,1.757c4.389,14.035-1.104,30.372,4.545,44.671
						c9.254-1.126,21.461-0.414,30.462-3.534C598.182,345.135,600.08,327.172,595.871,315.18z"/>
					<path style="fill:#FDE427;" d="M598.507,311.666l-33.384,1.757c4.39,14.035-1.104,30.372,4.546,44.671
						c9.254-1.127,21.461-0.414,30.462-3.534C600.818,341.621,602.715,323.658,598.507,311.666z"/>
				</g>
				<path style="fill:#D3B81A;" d="M571.925,327.352c1.948,0.829,4.742-0.031,6.71-0.394c3.005-0.556,5.993-1.343,9.031-1.702
					c0.926-0.11,0.937-1.575,0-1.464c-2.684,0.318-5.329,0.95-7.977,1.476c-1.368,0.271-2.739,0.527-4.118,0.725
					c-0.796,0.114-2.125,0.427-2.907,0.094C571.806,325.722,571.059,326.983,571.925,327.352L571.925,327.352z"/>
				<path style="fill:#D3B81A;" d="M570.099,332.722c8.274-0.949,16.342-3.075,24.35-5.296c0.909-0.252,0.522-1.665-0.389-1.412
					c-7.876,2.185-15.823,4.311-23.961,5.244C569.172,331.364,569.162,332.829,570.099,332.722L570.099,332.722z"/>
				<path style="fill:#D3B81A;" d="M572.734,336.675c4.538-0.609,8.914-2.093,13.37-3.101c0.921-0.208,0.53-1.619-0.389-1.412
					c-4.321,0.977-8.58,2.458-12.981,3.048C571.812,335.334,571.8,336.8,572.734,336.675L572.734,336.675z"/>
				<path style="fill:#D3B81A;" d="M573.858,338.947c0.573,0.914,1.929,0.802,2.856,0.738c1.93-0.133,3.851-0.569,5.732-0.997
					c4.044-0.921,8.065-2.052,12.003-3.357c0.892-0.296,0.51-1.71-0.389-1.412c-3.308,1.097-6.675,2.039-10.054,2.888
					c-1.917,0.482-3.848,0.921-5.8,1.234c-0.441,0.071-2.875,0.499-3.083,0.167C574.623,337.41,573.356,338.145,573.858,338.947
					L573.858,338.947z"/>
				<path style="fill:#D3B81A;" d="M575.176,340.404c-0.451,0.708-0.886,0.78-0.978,1.687c-0.04,0.396,0.363,0.734,0.732,0.732
					c4.881-0.033,9.697-0.881,14.248-2.661c0.869-0.34,0.492-1.756-0.389-1.412c-4.436,1.735-9.1,2.577-13.859,2.609
					c0.244,0.244,0.488,0.488,0.732,0.732c0.02-0.204,0.653-0.752,0.778-0.948C576.949,340.344,575.681,339.61,575.176,340.404
					L575.176,340.404z"/>
				<path style="fill:#D3B81A;" d="M579.831,344.48c2.433,1.626,5.963,0.997,8.714,0.978c0.944-0.006,0.944-1.471,0-1.464
					c-2.458,0.017-5.812,0.667-7.975-0.779C579.782,342.69,579.05,343.958,579.831,344.48L579.831,344.48z"/>
			</g>
			<g>
				<g>
					<path style="fill:#AA3C6E;" d="M380,372.814c-4.437-12.034-8.396-24.451-11.478-37.381
						c-7.333,9.32-34.518,10.607-34.518,10.607c5.886,12.843,11.495,29.338,11.501,43.145
						C357.133,385.076,369.13,378.988,380,372.814z"/>
					<path style="fill:#FF5593;" d="M380.803,368.968c-4.437-12.034-8.396-24.451-11.478-37.381
						c-7.333,9.319-34.517,10.607-34.517,10.607c5.885,12.843,11.494,29.338,11.5,43.145
						C357.936,381.23,369.932,375.142,380.803,368.968z"/>
				</g>
				<path style="fill:#AA3C6E;" d="M348.86,351.532c2.708,0.993,5.884-0.184,8.402-1.205c3.077-1.248,5.983-2.895,8.812-4.623
					c0.804-0.491,0.072-1.759-0.736-1.266c-2.44,1.49-4.931,2.892-7.536,4.076c-2.448,1.113-5.845,2.599-8.55,1.608
					C348.363,349.796,347.98,351.21,348.86,351.532L348.86,351.532z"/>
				<path style="fill:#AA3C6E;" d="M350.993,357.405c3.172-1.385,6.586-2.142,9.786-3.463c0.859-0.355,0.497-1.775-0.374-1.416
					c-3.322,1.371-6.854,2.174-10.149,3.613C349.393,356.516,350.136,357.779,350.993,357.405L350.993,357.405z"/>
				<path style="fill:#AA3C6E;" d="M350.452,359.288c3.778,1.589,8.155-0.701,11.648-2.061c0.869-0.338,0.505-1.758-0.374-1.416
					c-3.231,1.259-7.393,3.533-10.882,2.066C349.974,357.512,349.595,358.928,350.452,359.288L350.452,359.288z"/>
				<path style="fill:#AA3C6E;" d="M348.875,366.594c5.835-3.406,12.46-5.092,18.68-7.627c0.862-0.351,0.499-1.771-0.374-1.416
					c-6.34,2.583-13.095,4.305-19.043,7.777C347.324,365.803,348.058,367.071,348.875,366.594L348.875,366.594z"/>
				<path style="fill:#AA3C6E;" d="M352.898,370.556c4.062-1.567,8.127-3.123,12.049-5.023c0.849-0.412,0.109-1.676-0.737-1.266
					c-3.803,1.843-7.745,3.353-11.685,4.873C351.654,369.476,352.018,370.895,352.898,370.556L352.898,370.556z"/>
				<path style="fill:#AA3C6E;" d="M354.401,373.117c1.45,0.622,3.471-0.579,4.762-1.159c2.253-1.013,4.442-2.197,6.569-3.452
					c0.811-0.479,0.078-1.746-0.737-1.265c-1.718,1.014-3.479,1.956-5.268,2.837c-0.949,0.468-1.913,0.909-2.901,1.288
					c-0.34,0.131-1.424,0.6-1.687,0.487C354.282,371.484,353.535,372.745,354.401,373.117L354.401,373.117z"/>
			</g>
			<g>
				<g>
					<path style="opacity:0.6;fill:#16B1B5;" d="M373.678,257.212c-4.437-12.035-8.396-24.451-11.478-37.381
						c-7.333,9.319-34.517,10.607-34.517,10.607c5.885,12.843,11.494,29.338,11.5,43.145
						C350.811,269.473,362.807,263.385,373.678,257.212z"/>
					<path style="fill:#FF5593;" d="M374.48,253.366c-4.437-12.034-8.396-24.451-11.478-37.381
						c-25.1,7.572-35.32,14.453-35.32,14.453c5.885,12.843,12.297,25.492,12.303,39.298
						C351.613,265.627,363.609,259.539,374.48,253.366z"/>
				</g>
				<path style="fill:#AA3C6E;" d="M342.537,235.93c2.708,0.993,5.884-0.183,8.402-1.205c3.077-1.248,5.983-2.895,8.812-4.623
					c0.804-0.491,0.072-1.759-0.737-1.266c-2.439,1.49-4.931,2.892-7.536,4.076c-2.448,1.113-5.845,2.599-8.55,1.607
					C342.04,234.193,341.658,235.607,342.537,235.93L342.537,235.93z"/>
				<path style="fill:#AA3C6E;" d="M344.67,241.803c3.173-1.386,6.586-2.142,9.786-3.464c0.859-0.355,0.497-1.775-0.374-1.416
					c-3.322,1.371-6.854,2.174-10.149,3.614C343.07,240.914,343.814,242.177,344.67,241.803L344.67,241.803z"/>
				<path style="fill:#AA3C6E;" d="M344.129,243.686c3.778,1.588,8.155-0.701,11.648-2.061c0.87-0.339,0.505-1.758-0.374-1.416
					c-3.232,1.259-7.393,3.533-10.882,2.066C343.651,241.909,343.272,243.326,344.129,243.686L344.129,243.686z"/>
				<path style="fill:#AA3C6E;" d="M342.552,250.992c5.836-3.407,12.46-5.093,18.681-7.627c0.862-0.351,0.499-1.771-0.374-1.416
					c-6.34,2.584-13.095,4.305-19.043,7.777C341.002,250.201,341.735,251.468,342.552,250.992L342.552,250.992z"/>
				<path style="fill:#AA3C6E;" d="M346.576,254.953c4.062-1.567,8.127-3.123,12.049-5.023c0.849-0.411,0.109-1.675-0.737-1.266
					c-3.804,1.843-7.745,3.353-11.686,4.873C345.332,253.874,345.696,255.293,346.576,254.953L346.576,254.953z"/>
				<path style="fill:#AA3C6E;" d="M348.079,257.514c1.45,0.622,3.471-0.579,4.762-1.16c2.253-1.013,4.442-2.196,6.568-3.452
					c0.812-0.479,0.078-1.747-0.737-1.266c-1.718,1.014-3.479,1.956-5.268,2.837c-0.949,0.468-1.913,0.909-2.901,1.288
					c-0.34,0.131-1.424,0.6-1.687,0.487C347.959,255.882,347.212,257.142,348.079,257.514L348.079,257.514z"/>
			</g>
			<g>
				<g>
					<path style="fill:#AA3C6E;" d="M484.619,191.454c-1.22-12.768-1.88-25.784-1.562-39.072c-9.468,7.14-36.081,1.449-36.081,1.449
						c2.414,13.92,3.629,31.3,0.112,44.651C459.38,197.476,472.533,194.649,484.619,191.454z"/>
					<path style="fill:#FF5593;" d="M486.376,187.939c-1.22-12.768-1.88-25.784-1.562-39.072c-9.468,7.14-36.081,1.449-36.081,1.449
						c2.414,13.919,3.629,31.299,0.112,44.651C461.138,193.961,474.29,191.135,486.376,187.939z"/>
				</g>
				<path style="fill:#AA3C6E;" d="M459.938,162.931c2.365,1.651,5.736,1.324,8.432,0.978c3.294-0.422,6.524-1.273,9.7-2.222
					c0.903-0.27,0.518-1.682-0.389-1.412c-2.739,0.819-5.507,1.538-8.326,2.019c-2.651,0.452-6.315,1.022-8.677-0.627
					C459.901,161.125,459.171,162.395,459.938,162.931L459.938,162.931z"/>
				<path style="fill:#AA3C6E;" d="M460.502,169.153c3.421-0.53,6.915-0.391,10.346-0.852c0.921-0.124,0.933-1.589,0-1.464
					c-3.562,0.479-7.182,0.353-10.735,0.904C459.182,167.886,459.579,169.297,460.502,169.153L460.502,169.153z"/>
				<path style="fill:#AA3C6E;" d="M459.499,170.836c3.247,2.5,8.064,1.402,11.788,0.979c0.927-0.106,0.937-1.571,0-1.464
					c-3.445,0.393-8.05,1.53-11.05-0.778C459.49,168.997,458.762,170.269,459.499,170.836L459.499,170.836z"/>
				<path style="fill:#AA3C6E;" d="M456.111,177.498c6.511-1.805,13.346-1.745,20.008-2.609c0.923-0.12,0.934-1.585,0-1.464
					c-6.789,0.881-13.76,0.822-20.397,2.662C454.813,176.339,455.199,177.751,456.111,177.498L456.111,177.498z"/>
				<path style="fill:#AA3C6E;" d="M458.99,182.355c4.327-0.479,8.655-0.946,12.931-1.783c0.926-0.181,0.533-1.592-0.389-1.412
					c-4.148,0.812-8.344,1.266-12.542,1.73C458.063,180.994,458.052,182.459,458.99,182.355L458.99,182.355z"/>
				<path style="fill:#AA3C6E;" d="M459.79,185.215c1.243,0.971,3.504,0.326,4.9,0.093c2.436-0.405,4.855-0.99,7.231-1.662
					c0.907-0.257,0.521-1.669-0.389-1.412c-1.919,0.543-3.863,1.004-5.818,1.399c-1.037,0.21-2.081,0.391-3.133,0.505
					c-0.362,0.039-1.53,0.216-1.755,0.04C460.091,183.606,459.047,184.634,459.79,185.215L459.79,185.215z"/>
			</g>
			<g>
				<g>
					<path style="fill:#16B1B5;" d="M867.219,265.292c1.976-12.673,4.556-25.448,8.151-38.244c-10.94,4.577-35.32-7.52-35.32-7.52
						c-1.103,14.084-4.224,31.225-10.934,43.291C841.276,264.885,854.718,265.399,867.219,265.292z"/>
					<path style="fill:#46F2F2;" d="M869.791,262.322c1.976-12.673,4.555-25.448,8.151-38.244
						c-14.432-3.388-35.319-7.52-35.319-7.52c-1.104,14.084-4.225,31.225-10.935,43.291
						C843.847,261.914,857.289,262.429,869.791,262.322z"/>
				</g>
				<path style="fill:#16B1B5;" d="M850.36,231.551c1.883,2.185,5.23,2.702,7.927,3.034c3.295,0.406,6.635,0.38,9.948,0.246
					c0.941-0.038,0.918-1.502-0.028-1.464c-2.856,0.115-5.716,0.128-8.567-0.103c-2.681-0.218-6.371-0.571-8.253-2.754
					C850.77,229.792,849.748,230.842,850.36,231.551L850.36,231.551z"/>
				<path style="fill:#16B1B5;" d="M849.367,237.72c3.446,0.332,6.797,1.331,10.236,1.733c0.923,0.108,1.297-1.309,0.362-1.418
					c-3.57-0.418-7.047-1.434-10.626-1.779C848.401,236.166,848.437,237.631,849.367,237.72L849.367,237.72z"/>
				<path style="fill:#16B1B5;" d="M847.979,239.103c2.528,3.225,7.466,3.353,11.18,3.863c0.924,0.127,1.297-1.29,0.362-1.418
					c-3.436-0.472-8.179-0.509-10.514-3.487C848.425,237.318,847.405,238.37,847.979,239.103L847.979,239.103z"/>
				<path style="fill:#16B1B5;" d="M843.048,244.719c6.756-0.138,13.363,1.61,20.032,2.421c0.923,0.112,1.297-1.305,0.362-1.418
					c-6.797-0.826-13.536-2.607-20.422-2.466C842.077,243.274,842.102,244.739,843.048,244.719L843.048,244.719z"/>
				<path style="fill:#16B1B5;" d="M844.636,250.137c4.311,0.607,8.62,1.224,12.971,1.471c0.942,0.053,0.911-1.411-0.028-1.464
					c-4.22-0.239-8.398-0.837-12.581-1.425C844.075,248.589,843.703,250.006,844.636,250.137L844.636,250.137z"/>
				<path style="fill:#16B1B5;" d="M844.705,253.107c0.964,1.248,3.314,1.182,4.724,1.303c2.461,0.21,4.949,0.241,7.417,0.178
					c0.943-0.024,0.918-1.488-0.028-1.464c-1.994,0.051-3.991,0.017-5.983-0.083c-1.057-0.053-2.114-0.136-3.161-0.286
					c-0.361-0.051-1.536-0.168-1.711-0.395C845.394,251.622,844.127,252.36,844.705,253.107L844.705,253.107z"/>
			</g>
			<g>
				<g style="opacity:0.6;">
					<g>
						<path style="fill:#16B1B5;" d="M580.295,278.3c0.005-0.026,0.01-0.053,0.014-0.08c-0.024,0.004-0.048,0.007-0.071,0.012
							C579.934,278.551,579.953,278.574,580.295,278.3z"/>
						<path style="fill:#16B1B5;" d="M677.634,200.002c1.77-21.76,2.014-43.62,2.682-65.367c-3.814-0.506-7.684-0.837-11.579-1.051
							c-0.126-0.024-0.255-0.041-0.386-0.052c-0.188-0.015-0.373-0.012-0.556,0c-9.774-0.49-19.69-0.253-29.259-0.097
							c-11.475,0.187-23.846-0.375-35.337,0.666l-14.854-0.309c-0.211-0.056-0.428-0.097-0.653-0.115
							c-0.389-0.032-0.769-0.003-1.13,0.078l-11.038-0.23c7.417,20.789,6.628,50.229,7.759,72.245
							c1.214,23.615,1.313,49.045-2.974,72.449c13.932-2.644,31.282,4.611,46.087,4.129c13.714-0.446,28.658-2.898,41.474-5.327
							c0.395-11.247,4.672-22.588,6.238-33.81C676.093,228.98,676.468,214.327,677.634,200.002z"/>
					</g>
				</g>
				<g>
					<g>
						<g>
							<path style="fill:#FFFFFF;" d="M591.326,271.529c0.003-0.027,0.005-0.054,0.008-0.081c-0.023,0.007-0.047,0.012-0.07,0.018
								C590.987,271.808,591.007,271.829,591.326,271.529z"/>
							<path style="fill:#FFFFFF;" d="M681.98,185.581c-0.004-21.831-1.537-43.639-2.639-65.369
								c-13.786-0.699-28.109,0.864-41.738,2.199c-11.422,1.119-23.797,1.563-35.166,3.535l-27.631,1.674
								c9.082,20.117,10.687,49.524,13.604,71.376c3.129,23.438,5.294,48.776,2.923,72.451c13.671-3.767,31.553,2.054,46.27,0.371
								c13.633-1.559,28.328-5.217,40.904-8.68c-0.52-11.242,2.822-22.893,3.47-34.206
								C682.799,214.588,681.983,199.952,681.98,185.581z"/>
						</g>
						<g>
							<path style="fill:#D7E0E0;" d="M605.573,158.842c3.782,1.065,8.019-0.224,11.629-1.372c4.745-1.509,9.28-3.493,14.059-4.928
								c11.639-3.495,23.614-6.022,35.827-5.467c1.35,0.061,1.344-2.032,0-2.093c-11.607-0.527-23.005,1.704-34.117,4.877
								c-4.781,1.365-9.337,3.084-13.993,4.791c-3.812,1.397-8.76,3.325-12.848,2.174
								C604.828,156.457,604.276,158.477,605.573,158.842L605.573,158.842z"/>
							<path style="fill:#D7E0E0;" d="M605.721,169.803c18.741-10.813,40.562-17.397,62.025-19.776c1.326-0.147,1.34-2.242,0-2.093
								c-21.845,2.421-43.999,9.052-63.082,20.062C603.496,168.669,604.55,170.478,605.721,169.803L605.721,169.803z"/>
							<path style="fill:#D7E0E0;" d="M600.454,175.705c17.827-8.021,37.845-8.26,56.377-13.912
								c1.287-0.392,0.738-2.413-0.557-2.018c-18.727,5.711-38.856,6.014-56.877,14.122
								C598.168,174.45,599.233,176.253,600.454,175.705L600.454,175.705z"/>
							<path style="fill:#D7E0E0;" d="M609.422,178.023c16.497-2.218,32.995-4.451,49.384-7.377
								c1.327-0.237,0.763-2.254-0.557-2.018c-16.389,2.926-32.887,5.16-49.383,7.378
								C607.533,176.184,608.103,178.201,609.422,178.023L609.422,178.023z"/>
							<path style="fill:#D7E0E0;" d="M608.207,188.352c2.674,0.69,5.545,0.257,8.221-0.188c4.209-0.701,8.342-1.884,12.433-3.078
								c8.185-2.388,16.287-5.455,24.677-7.062c1.325-0.254,0.762-2.271-0.557-2.018c-7.836,1.501-15.43,4.298-23.058,6.583
								c-4.046,1.212-8.118,2.365-12.256,3.22c-2.808,0.58-6.061,1.26-8.904,0.525C607.456,185.995,606.901,188.015,608.207,188.352
								L608.207,188.352z"/>
							<path style="fill:#D7E0E0;" d="M612.436,196.504c10.904,0.777,22.174-2.125,32.543-5.202
								c1.291-0.383,0.741-2.403-0.557-2.018c-10.209,3.029-21.252,5.892-31.986,5.126
								C611.089,194.315,611.098,196.409,612.436,196.504L612.436,196.504z"/>
							<path style="fill:#D7E0E0;" d="M618.281,204.313c3.649,3.793,11.271,1.637,15.596,0.552
								c5.904-1.482,11.813-3.595,17.277-6.29c1.211-0.597,0.15-2.402-1.056-1.807c-4.872,2.402-10.092,4.226-15.315,5.69
								c-2.938,0.823-5.948,1.495-8.997,1.708c-1.952,0.136-4.557,0.194-6.026-1.332
								C618.823,201.859,617.345,203.34,618.281,204.313L618.281,204.313z"/>
							<path style="fill:#D7E0E0;" d="M629.936,215.648c5.146,1.551,10.65,0.92,15.88,0.191c6.196-0.863,12.356-2.314,18.638-2.367
								c1.349-0.012,1.35-2.105,0-2.093c-5.578,0.048-11.095,1.172-16.584,2.048c-5.64,0.9-11.791,1.887-17.377,0.203
								C629.197,213.239,628.648,215.26,629.936,215.648L629.936,215.648z"/>
							<path style="fill:#D7E0E0;" d="M607.447,230.403c18.232-5.386,37.888-2.745,55.969-8.853c1.272-0.43,0.725-2.452-0.557-2.018
								c-18.076,6.107-37.734,3.467-55.969,8.853C605.599,228.766,606.149,230.786,607.447,230.403L607.447,230.403z"/>
							<path style="fill:#D7E0E0;" d="M615.729,243.72c14.536-1.046,27.535-9.425,42.141-10.328c1.341-0.083,1.349-2.177,0-2.093
								c-7.252,0.449-14.237,2.647-21.104,4.88c-6.831,2.221-13.813,4.929-21.037,5.449
								C614.39,241.723,614.381,243.817,615.729,243.72L615.729,243.72z"/>
							<path style="fill:#D7E0E0;" d="M621.573,245.622c-0.884,0.74-1.859,0.734-2.245,1.937c-0.188,0.589,0.339,1.414,1.009,1.325
								c10.612-1.413,21.451-0.174,31.884-2.989c1.302-0.351,0.748-2.37-0.557-2.018c-10.246,2.764-20.903,1.525-31.327,2.913
								c0.336,0.442,0.673,0.884,1.009,1.325c0.049-0.154,1.455-0.803,1.706-1.014C624.089,246.234,622.6,244.761,621.573,245.622
								L621.573,245.622z"/>
							<path style="fill:#D7E0E0;" d="M637.179,251.798c4.287,1.684,9.4-0.018,13.726-0.738c1.329-0.221,0.763-2.238-0.557-2.019
								c-3.976,0.661-8.682,2.281-12.612,0.738C636.478,249.285,635.938,251.31,637.179,251.798L637.179,251.798z"/>
						</g>
					</g>
					<path style="fill:#FF1717;" d="M590.715,130.552c0,2.081-1.687,3.768-3.768,3.768c-2.081,0-3.768-1.687-3.768-3.768
						c0-2.081,1.687-3.768,3.768-3.768C589.029,126.784,590.715,128.471,590.715,130.552z"/>
					<path style="fill:#579334;" d="M671.096,123.853c0,2.081-1.687,3.768-3.768,3.768c-2.081,0-3.768-1.687-3.768-3.768
						c0-2.081,1.687-3.768,3.768-3.768C669.408,120.085,671.096,121.772,671.096,123.853z"/>
				</g>
			</g>
			<g>
				<g>
					<path style="fill:#AA3C6E;" d="M764.304,265.553c-1.22-12.768-1.88-25.784-1.562-39.072c-9.468,7.14-36.081,1.449-36.081,1.449
						c2.414,13.919,3.629,31.3,0.112,44.651C739.065,271.575,752.218,268.749,764.304,265.553z"/>
					<path style="fill:#FF5593;" d="M766.062,262.039c-1.221-12.768-1.881-25.784-1.562-39.072
						c-9.469,7.14-36.082,1.449-36.082,1.449c2.414,13.919,3.629,31.299,0.112,44.651
						C740.822,268.061,753.975,265.235,766.062,262.039z"/>
				</g>
				<path style="fill:#AA3C6E;" d="M739.623,237.031c2.365,1.651,5.736,1.324,8.432,0.978c3.293-0.422,6.524-1.273,9.7-2.222
					c0.902-0.27,0.518-1.683-0.389-1.412c-2.739,0.819-5.506,1.538-8.326,2.018c-2.651,0.452-6.314,1.023-8.677-0.627
					C739.586,235.224,738.855,236.494,739.623,237.031L739.623,237.031z"/>
				<path style="fill:#AA3C6E;" d="M740.187,243.253c3.421-0.531,6.915-0.391,10.346-0.852c0.921-0.124,0.934-1.589,0-1.464
					c-3.562,0.479-7.182,0.354-10.735,0.905C738.867,241.986,739.264,243.396,740.187,243.253L740.187,243.253z"/>
				<path style="fill:#AA3C6E;" d="M739.184,244.936c3.248,2.5,8.064,1.402,11.788,0.979c0.927-0.106,0.938-1.571,0-1.464
					c-3.445,0.393-8.05,1.53-11.049-0.778C739.174,243.096,738.447,244.369,739.184,244.936L739.184,244.936z"/>
				<path style="fill:#AA3C6E;" d="M735.795,251.598c6.511-1.805,13.346-1.745,20.008-2.609c0.923-0.12,0.934-1.585,0-1.464
					c-6.789,0.881-13.76,0.822-20.397,2.662C734.498,250.438,734.883,251.85,735.795,251.598L735.795,251.598z"/>
				<path style="fill:#AA3C6E;" d="M738.675,256.455c4.327-0.479,8.655-0.946,12.931-1.783c0.926-0.181,0.532-1.592-0.389-1.412
					c-4.148,0.812-8.344,1.266-12.542,1.73C737.747,255.094,737.737,256.559,738.675,256.455L738.675,256.455z"/>
				<path style="fill:#AA3C6E;" d="M739.475,259.315c1.243,0.971,3.504,0.326,4.9,0.094c2.436-0.405,4.856-0.99,7.231-1.662
					c0.907-0.257,0.521-1.669-0.389-1.412c-1.919,0.543-3.863,1.004-5.818,1.399c-1.037,0.21-2.081,0.391-3.133,0.505
					c-0.362,0.04-1.53,0.217-1.755,0.04C739.776,257.705,738.732,258.734,739.475,259.315L739.475,259.315z"/>
			</g>
			<g>
				<g>
					<path style="fill:#AA3C6E;" d="M288.824,346.346c-1.22-12.768-1.88-25.784-1.562-39.072c-9.468,7.14-36.082,1.449-36.082,1.449
						c2.414,13.92,3.629,31.3,0.113,44.651C263.585,352.368,276.737,349.542,288.824,346.346z"/>
					<path style="fill:#FF5593;" d="M290.581,342.832c-1.22-12.768-1.881-25.784-1.562-39.072
						c-9.468,7.14-36.082,1.449-36.082,1.449c2.414,13.919,3.63,31.299,0.113,44.651
						C265.342,348.854,278.494,346.028,290.581,342.832z"/>
				</g>
				<path style="fill:#AA3C6E;" d="M264.143,317.824c2.365,1.651,5.736,1.324,8.432,0.978c3.293-0.422,6.524-1.273,9.7-2.222
					c0.902-0.27,0.518-1.683-0.389-1.412c-2.739,0.818-5.506,1.538-8.326,2.019c-2.651,0.452-6.315,1.022-8.677-0.627
					C264.106,316.017,263.375,317.288,264.143,317.824L264.143,317.824z"/>
				<path style="fill:#AA3C6E;" d="M264.707,324.046c3.421-0.531,6.915-0.391,10.346-0.852c0.921-0.124,0.933-1.589,0-1.464
					c-3.562,0.478-7.182,0.354-10.736,0.905C263.387,322.779,263.784,324.189,264.707,324.046L264.707,324.046z"/>
				<path style="fill:#AA3C6E;" d="M263.704,325.729c3.247,2.5,8.064,1.403,11.788,0.978c0.927-0.105,0.937-1.571,0-1.464
					c-3.445,0.392-8.05,1.53-11.049-0.778C263.695,323.889,262.966,325.162,263.704,325.729L263.704,325.729z"/>
				<path style="fill:#AA3C6E;" d="M260.315,332.391c6.511-1.805,13.346-1.745,20.008-2.609c0.923-0.12,0.934-1.585,0-1.464
					c-6.79,0.881-13.76,0.822-20.397,2.661C259.017,331.231,259.404,332.643,260.315,332.391L260.315,332.391z"/>
				<path style="fill:#AA3C6E;" d="M263.195,337.248c4.327-0.479,8.655-0.946,12.931-1.783c0.926-0.181,0.533-1.592-0.389-1.412
					c-4.148,0.812-8.344,1.266-12.542,1.73C262.267,335.886,262.257,337.352,263.195,337.248L263.195,337.248z"/>
				<path style="fill:#AA3C6E;" d="M263.995,340.108c1.243,0.971,3.504,0.326,4.9,0.094c2.436-0.405,4.855-0.99,7.231-1.662
					c0.907-0.256,0.521-1.669-0.389-1.412c-1.92,0.543-3.863,1.004-5.818,1.399c-1.037,0.21-2.081,0.391-3.133,0.505
					c-0.362,0.039-1.53,0.217-1.755,0.04C264.296,338.499,263.251,339.527,263.995,340.108L263.995,340.108z"/>
			</g>
		</g>
		<g>
			<g>
				<g>
					<path style="fill:#3D3D3D;" d="M618.048,485.447c0.411,5.937-4.068,10.751-10.006,10.751h-33.686
						c-5.937,0-10.149-4.814-9.407-10.751l8.513-68.089c0.741-5.937,4.638-10.751,8.703-10.751h23.059
						c4.064,0,7.692,4.814,8.104,10.751L618.048,485.447z"/>
					<path style="fill:#707070;" d="M608.88,483.566c0.329,4.641-3.25,8.403-7.991,8.403h-26.905c-4.742,0-8.106-3.762-7.513-8.403
						l6.799-53.219c0.593-4.641,3.705-8.404,6.951-8.404h18.416c3.246,0,6.145,3.763,6.473,8.404L608.88,483.566z"/>
					<g>
						<path style="fill:#3D3D3D;" d="M588.354,487.37c-9.785,0-17.745-7.96-17.745-17.745c0-9.785,7.96-17.745,17.745-17.745
							c9.784,0,17.745,7.96,17.745,17.745C606.099,479.41,598.139,487.37,588.354,487.37z M588.354,453.201
							c-9.056,0-16.424,7.368-16.424,16.425c0,9.056,7.368,16.424,16.424,16.424c9.057,0,16.424-7.368,16.424-16.424
							C604.779,460.569,597.411,453.201,588.354,453.201z"/>
						<path style="fill:#3D3D3D;" d="M588.354,456.01c-7.507,0-13.615,6.107-13.615,13.615s6.108,13.615,13.615,13.615
							c7.507,0,13.615-6.107,13.615-13.615S595.861,456.01,588.354,456.01z"/>
					</g>
					<g>
						<path style="fill:#3D3D3D;" d="M588.354,447.699c-5.533,0-10.035-4.501-10.035-10.035c0-5.533,4.502-10.034,10.035-10.034
							c5.532,0,10.034,4.501,10.034,10.034C598.389,443.198,593.887,447.699,588.354,447.699z M588.354,428.378
							c-5.121,0-9.287,4.166-9.287,9.287c0,5.121,4.166,9.288,9.287,9.288c5.121,0,9.287-4.167,9.287-9.288
							C597.642,432.544,593.475,428.378,588.354,428.378z"/>
						<path style="fill:#3D3D3D;" d="M588.354,429.966c-4.245,0-7.699,3.453-7.699,7.699c0,4.245,3.454,7.698,7.699,7.698
							s7.698-3.453,7.698-7.698C596.053,433.419,592.6,429.966,588.354,429.966z"/>
					</g>
				</g>
				<g>
					<g>
						<g>
							<rect x="1054.185" y="514.769" style="fill:#A0A0A0;" width="28.593" height="326.418"/>
							<rect x="1054.185" y="829.788" style="opacity:0.7;fill:#212E35;" width="28.593" height="11.399"/>
						</g>
						<path style="fill:#CCCCCC;" d="M1065.349,795.546c0,2.039-1.308,3.692-2.92,3.692l0,0c-1.612,0-2.919-1.653-2.919-3.692
							V532.464c0-2.039,1.307-3.693,2.919-3.693l0,0c1.612,0,2.92,1.654,2.92,3.693V795.546z"/>
					</g>
					<g>
						<g>
							<rect x="850.317" y="514.769" style="fill:#A0A0A0;" width="28.593" height="326.418"/>
							<rect x="850.317" y="829.788" style="opacity:0.7;fill:#212E35;" width="28.593" height="11.399"/>
						</g>
						<path style="fill:#CCCCCC;" d="M861.479,795.546c0,2.039-1.306,3.692-2.919,3.692l0,0c-1.612,0-2.918-1.653-2.918-3.692
							V532.464c0-2.039,1.306-3.693,2.918-3.693l0,0c1.613,0,2.919,1.654,2.919,3.693V795.546z"/>
					</g>
					<g>
						<g>
							<rect x="523.276" y="514.769" style="fill:#A0A0A0;" width="28.594" height="326.418"/>
							<rect x="523.276" y="829.788" style="opacity:0.7;fill:#212E35;" width="28.594" height="11.399"/>
						</g>
						<path style="fill:#CCCCCC;" d="M534.439,795.546c0,2.039-1.307,3.692-2.919,3.692l0,0c-1.612,0-2.919-1.653-2.919-3.692
							V532.464c0-2.039,1.307-3.693,2.919-3.693l0,0c1.612,0,2.919,1.654,2.919,3.693V795.546z"/>
					</g>
					<g>
						<g>
							<rect x="320.244" y="514.769" style="fill:#A0A0A0;" width="28.594" height="326.418"/>
							<rect x="320.244" y="829.788" style="opacity:0.7;fill:#212E35;" width="28.594" height="11.399"/>
						</g>
						<path style="fill:#CCCCCC;" d="M331.408,795.546c0,2.039-1.307,3.692-2.919,3.692l0,0c-1.612,0-2.919-1.653-2.919-3.692
							V532.464c0-2.039,1.307-3.693,2.919-3.693l0,0c1.613,0,2.919,1.654,2.919,3.693V795.546z"/>
					</g>
					<g>
						<rect x="319.041" y="508.212" style="fill:#302530;" width="765.287" height="25.119"/>
						<g>
							<rect x="295.596" y="497.328" style="fill:#60485E;" width="810.5" height="16.746"/>
							<rect x="883.506" y="497.328" style="fill:#423241;" width="222.59" height="16.746"/>
						</g>
					</g>
				</g>
				<path style="fill:#603043;" d="M383.203,454.961c-0.485-0.061-0.974-0.121-1.456-0.182
					C382.521,454.828,383.013,454.889,383.203,454.961z"/>
				<path style="fill:#00788C;" d="M384.019,601.1c-17.097,2.482,5.532,10.392-9.286,15.782l75.543,11.623
					c38.581-2.336,149.048,4.497,166.775,0c6.344-1.61,39.243-0.82,41.901-4.555C638.405,590.552,409.663,597.375,384.019,601.1z"/>
				<g>
					<g>
						<g>
							<rect x="736.486" y="420.003" style="fill:#3D3D3D;" width="35.903" height="74.928"/>
							<rect x="736.486" y="420.003" style="fill:#757573;" width="16.604" height="74.928"/>
							<g>
								<path style="fill:#999995;" d="M836.374,492.246c0,2.591-2.096,4.682-4.682,4.682H677.185c-2.586,0-4.682-2.092-4.682-4.682
									c0-1.291,0.525-2.461,1.373-3.304c0.843-0.848,2.019-1.373,3.309-1.373h154.506
									C834.277,487.569,836.374,489.666,836.374,492.246z"/>
								<path style="fill:#3D3D3D;" d="M836.374,492.246c0,2.591-1.47,4.682-3.283,4.682h-55.802c-1.813,0-3.283-2.092-3.283-4.682
									c0-1.291,0.368-2.461,0.963-3.304c0.595-0.848,1.412-1.373,2.32-1.373h55.802
									C834.904,487.569,836.374,489.666,836.374,492.246z"/>
							</g>
							<g>
								<path style="fill:#3D3D3D;" d="M887.3,289.147v141.922c0,8.178-5.495,14.983-12.747,16.419
									c-0.925,0.187-1.883,0.28-2.861,0.28H621.978c-0.978,0-1.934-0.093-2.861-0.28c-7.252-1.436-12.746-8.241-12.746-16.419
									V289.147c0-9.219,6.992-16.695,15.608-16.695h249.715C880.313,272.453,887.3,279.928,887.3,289.147z"/>
								<path style="fill:#544753;" d="M868.696,295.063v130.096c0,8.454-6.319,15.306-14.118,15.306h-225.85
									c-7.798,0-14.118-6.852-14.118-15.306V295.063c0-8.455,6.32-15.306,14.118-15.306h225.85
									C862.378,279.757,868.696,286.608,868.696,295.063z"/>
								<path style="fill:#CCCCCC;" d="M869.448,410.415v21.089c0,8.35-5.16,15.299-11.971,16.765H617.562
									c-6.812-1.466-11.971-8.414-11.971-16.765v-21.089H869.448z"/>
							</g>
							<path style="fill:#757573;" d="M741.179,423.97c0,3.232-3.495,5.852-7.804,5.852c-4.309,0-7.803-2.62-7.803-5.852
								c0-3.232,3.494-5.852,7.803-5.852C737.684,418.118,741.179,420.738,741.179,423.97z"/>
						</g>
						<g>
							<g>
								<rect x="624.645" y="287.96" style="fill:#CACEA5;" width="12.922" height="1.385"/>
								<rect x="693.872" y="287.96" style="fill:#CACEA5;" width="17.537" height="1.385"/>
								<rect x="715.102" y="287.96" style="fill:#CACEA5;" width="57.228" height="1.385"/>
								<polygon style="fill:#CACEA5;" points="811.558,289.345 811.558,287.96 776.022,287.96 776.022,289.345 788.944,289.345 
									788.944,288.421 793.098,288.421 793.098,289.345 								"/>
								<rect x="822.174" y="287.96" style="fill:#CACEA5;" width="14.307" height="1.385"/>
								<rect x="624.645" y="294.421" style="fill:#CACEA5;" width="12.922" height="1.385"/>
								<rect x="757.561" y="294.421" style="fill:#CACEA5;" width="14.768" height="1.385"/>
								<rect x="776.022" y="294.421" style="fill:#CACEA5;" width="12.923" height="1.385"/>
								<rect x="822.174" y="294.421" style="fill:#CACEA5;" width="14.307" height="1.385"/>
								<rect x="793.098" y="294.421" style="fill:#CACEA5;" width="18.46" height="1.385"/>
								<rect x="693.872" y="294.421" style="fill:#CACEA5;" width="17.537" height="1.385"/>
								<rect x="715.102" y="294.421" style="fill:#CACEA5;" width="35.537" height="1.385"/>
								<rect x="624.645" y="300.882" style="fill:#CACEA5;" width="12.922" height="1.385"/>
								<rect x="702.641" y="300.882" style="fill:#CACEA5;" width="47.998" height="1.385"/>
								<rect x="757.561" y="300.882" style="fill:#CACEA5;" width="2.769" height="1.385"/>
								<rect x="770.945" y="300.882" style="fill:#CACEA5;" width="17.999" height="1.385"/>
								<rect x="793.098" y="300.882" style="fill:#CACEA5;" width="18.46" height="1.385"/>
								<rect x="822.174" y="300.882" style="fill:#CACEA5;" width="14.307" height="1.385"/>
								<rect x="624.645" y="307.344" style="fill:#CACEA5;" width="12.922" height="1.384"/>
								<rect x="702.641" y="307.344" style="fill:#CACEA5;" width="47.998" height="1.384"/>
								<rect x="757.561" y="307.344" style="fill:#CACEA5;" width="2.769" height="1.384"/>
								<rect x="770.945" y="307.344" style="fill:#CACEA5;" width="40.613" height="1.384"/>
								<rect x="829.096" y="307.344" style="fill:#CACEA5;" width="7.385" height="1.384"/>
								<rect x="822.174" y="307.344" style="fill:#CACEA5;" width="5.077" height="1.384"/>
								<rect x="624.645" y="313.805" style="fill:#CACEA5;" width="37.383" height="1.384"/>
								<rect x="702.641" y="313.805" style="fill:#CACEA5;" width="11.538" height="1.384"/>
								<rect x="770.945" y="313.805" style="fill:#CACEA5;" width="56.305" height="1.384"/>
								<rect x="829.096" y="313.805" style="fill:#CACEA5;" width="7.385" height="1.384"/>
								<rect x="729.87" y="313.805" style="fill:#CACEA5;" width="14.307" height="1.384"/>
								<polygon style="fill:#CACEA5;" points="692.026,321.189 662.028,321.189 662.028,320.266 624.645,320.266 624.645,321.65 
									692.026,321.65 								"/>
								<rect x="729.87" y="320.266" style="fill:#CACEA5;" width="14.307" height="1.384"/>
								<polygon style="fill:#CACEA5;" points="770.945,320.266 770.945,321.189 766.33,321.189 766.33,321.65 796.329,321.65 
									796.329,320.266 								"/>
								<rect x="797.713" y="320.266" style="fill:#CACEA5;" width="29.537" height="1.384"/>
								<rect x="829.096" y="320.266" style="fill:#CACEA5;" width="7.385" height="1.384"/>
								<rect x="702.641" y="320.266" style="fill:#CACEA5;" width="11.538" height="1.384"/>
								<polygon style="fill:#E0E8BF;" points="624.645,326.727 624.645,328.112 626.491,328.112 626.491,327.65 630.645,327.65 
									630.645,328.112 714.179,328.112 714.179,326.727 								"/>
								<rect x="729.87" y="326.727" style="fill:#E0E8BF;" width="14.307" height="1.384"/>
								<rect x="766.33" y="326.727" style="fill:#E0E8BF;" width="29.999" height="1.384"/>
								<rect x="797.713" y="326.727" style="fill:#E0E8BF;" width="29.537" height="1.384"/>
								<rect x="829.096" y="326.727" style="fill:#E0E8BF;" width="7.385" height="1.384"/>
								<rect x="624.645" y="333.188" style="fill:#E0E8BF;" width="1.846" height="1.384"/>
								<rect x="630.645" y="333.188" style="fill:#E0E8BF;" width="83.534" height="1.384"/>
								<rect x="729.87" y="333.188" style="fill:#E0E8BF;" width="14.307" height="1.384"/>
								<rect x="766.33" y="333.188" style="fill:#E0E8BF;" width="29.999" height="1.384"/>
								<rect x="797.713" y="333.188" style="fill:#E0E8BF;" width="29.537" height="1.384"/>
								<rect x="829.096" y="333.188" style="fill:#E0E8BF;" width="7.385" height="1.384"/>
								<rect x="630.645" y="339.65" style="fill:#E0E8BF;" width="83.534" height="1.384"/>
								<rect x="729.87" y="339.65" style="fill:#E0E8BF;" width="11.999" height="1.384"/>
								<rect x="766.33" y="339.65" style="fill:#E0E8BF;" width="24.922" height="1.384"/>
								<rect x="814.789" y="339.65" style="fill:#E0E8BF;" width="21.691" height="1.384"/>
								<rect x="801.867" y="339.65" style="fill:#E0E8BF;" width="4.615" height="1.384"/>
								<rect x="766.33" y="346.111" style="fill:#E0E8BF;" width="24.922" height="1.385"/>
								<rect x="801.867" y="346.111" style="fill:#E0E8BF;" width="4.615" height="1.385"/>
								<rect x="814.789" y="346.111" style="fill:#E0E8BF;" width="5.538" height="1.385"/>
								<rect x="822.635" y="346.111" style="fill:#E0E8BF;" width="13.845" height="1.385"/>
								<rect x="729.87" y="346.111" style="fill:#E0E8BF;" width="11.999" height="1.385"/>
								<rect x="630.645" y="346.111" style="fill:#E0E8BF;" width="13.846" height="1.385"/>
								<rect x="644.951" y="346.111" style="fill:#E0E8BF;" width="69.228" height="1.385"/>
								<rect x="729.87" y="352.572" style="fill:#E0E8BF;" width="11.999" height="1.385"/>
								<rect x="766.33" y="352.572" style="fill:#E0E8BF;" width="24.922" height="1.385"/>
								<rect x="801.867" y="352.572" style="fill:#E0E8BF;" width="4.615" height="1.385"/>
								<rect x="814.789" y="352.572" style="fill:#E0E8BF;" width="5.538" height="1.385"/>
								<rect x="822.635" y="352.572" style="fill:#E0E8BF;" width="13.845" height="1.385"/>
								<rect x="644.951" y="352.572" style="fill:#E0E8BF;" width="69.228" height="1.385"/>
								<rect x="630.645" y="352.572" style="fill:#E0E8BF;" width="13.846" height="1.385"/>
								<polygon style="fill:#E0E8BF;" points="630.645,359.033 630.645,359.956 626.491,359.956 626.491,359.033 626.03,359.033 
									626.03,360.418 644.49,360.418 644.49,359.033 								"/>
								<rect x="644.951" y="359.033" style="fill:#E0E8BF;" width="96.918" height="1.385"/>
								<rect x="766.33" y="359.033" style="fill:#E0E8BF;" width="13.846" height="1.385"/>
								<rect x="781.56" y="359.033" style="fill:#E0E8BF;" width="38.768" height="1.385"/>
								<rect x="822.635" y="359.033" style="fill:#E0E8BF;" width="13.845" height="1.385"/>
								<rect x="674.027" y="365.494" style="fill:#E0E8BF;" width="67.843" height="1.385"/>
								<rect x="626.03" y="365.494" style="fill:#E0E8BF;" width="18.461" height="1.385"/>
								<rect x="644.951" y="365.494" style="fill:#E0E8BF;" width="23.076" height="1.385"/>
								<rect x="781.56" y="365.494" style="fill:#E0E8BF;" width="38.768" height="1.385"/>
								<rect x="753.869" y="365.494" style="fill:#E0E8BF;" width="26.306" height="1.385"/>
								<rect x="822.635" y="365.494" style="fill:#E0E8BF;" width="13.845" height="1.385"/>
								<rect x="626.03" y="371.955" style="fill:#E0E8BF;" width="8.769" height="1.385"/>
								<rect x="637.106" y="371.955" style="fill:#E0E8BF;" width="7.384" height="1.385"/>
								<rect x="644.951" y="371.955" style="fill:#E0E8BF;" width="23.076" height="1.385"/>
								<rect x="674.027" y="371.955" style="fill:#E0E8BF;" width="67.843" height="1.385"/>
								<rect x="753.869" y="371.955" style="fill:#E0E8BF;" width="26.306" height="1.385"/>
								<rect x="781.56" y="371.955" style="fill:#E0E8BF;" width="38.768" height="1.385"/>
								<rect x="822.635" y="371.955" style="fill:#E0E8BF;" width="13.845" height="1.385"/>
								<rect x="693.411" y="378.417" style="fill:#E0E8BF;" width="72.458" height="1.385"/>
								<rect x="626.03" y="378.417" style="fill:#E0E8BF;" width="8.769" height="1.385"/>
								<rect x="637.106" y="378.417" style="fill:#E0E8BF;" width="10.153" height="1.385"/>
								<rect x="651.874" y="378.417" style="fill:#E0E8BF;" width="16.153" height="1.385"/>
								<rect x="674.027" y="378.417" style="fill:#E0E8BF;" width="16.153" height="1.385"/>
								<rect x="768.638" y="378.417" style="fill:#E0E8BF;" width="11.538" height="1.385"/>
								<rect x="781.56" y="378.417" style="fill:#E0E8BF;" width="54.921" height="1.385"/>
								<rect x="768.638" y="384.878" style="fill:#E0E8BF;" width="11.538" height="1.385"/>
								<rect x="624.645" y="384.878" style="fill:#E0E8BF;" width="10.153" height="1.385"/>
								<rect x="651.874" y="384.878" style="fill:#E0E8BF;" width="16.153" height="1.385"/>
								<rect x="637.106" y="384.878" style="fill:#E0E8BF;" width="10.153" height="1.385"/>
								<rect x="674.027" y="384.878" style="fill:#E0E8BF;" width="16.153" height="1.385"/>
								<rect x="693.411" y="384.878" style="fill:#E0E8BF;" width="72.458" height="1.385"/>
								<rect x="781.56" y="384.878" style="fill:#E0E8BF;" width="54.921" height="1.385"/>
								<rect x="624.645" y="391.339" style="fill:#E0E8BF;" width="10.153" height="1.385"/>
								<rect x="651.874" y="391.339" style="fill:#E0E8BF;" width="13.845" height="1.385"/>
								<rect x="674.488" y="391.339" style="fill:#E0E8BF;" width="15.692" height="1.385"/>
								<rect x="637.106" y="391.339" style="fill:#E0E8BF;" width="10.153" height="1.385"/>
								<rect x="693.411" y="391.339" style="fill:#E0E8BF;" width="19.845" height="1.385"/>
								<rect x="716.025" y="391.339" style="fill:#E0E8BF;" width="18.461" height="1.385"/>
								<rect x="738.639" y="391.339" style="fill:#E0E8BF;" width="27.229" height="1.385"/>
								<rect x="768.638" y="391.339" style="fill:#E0E8BF;" width="67.843" height="1.385"/>
								<rect x="624.645" y="397.8" style="fill:#E0E8BF;" width="22.615" height="1.385"/>
								<rect x="651.874" y="397.8" style="fill:#E0E8BF;" width="13.845" height="1.385"/>
								<rect x="674.488" y="397.8" style="fill:#E0E8BF;" width="38.768" height="1.385"/>
								<rect x="716.025" y="397.8" style="fill:#E0E8BF;" width="18.461" height="1.385"/>
								<rect x="738.639" y="397.8" style="fill:#E0E8BF;" width="27.229" height="1.385"/>
								<rect x="768.638" y="397.8" style="fill:#E0E8BF;" width="67.843" height="1.385"/>
							</g>
						</g>
						<g>
							<g>
								<rect x="632.61" y="297.93" style="fill:#353535;" width="123.078" height="92.745"/>
								<rect x="632.591" y="297.93" style="fill:#707070;" width="123.116" height="6.944"/>
							</g>
							<g>
								<path style="fill:#FF5821;" d="M749.241,301.309c0,1.333-1.08,2.414-2.413,2.414c-1.333,0-2.413-1.081-2.413-2.414
									c0-1.333,1.081-2.413,2.413-2.413C748.161,298.896,749.241,299.976,749.241,301.309z"/>
								<path style="fill:#889F33;" d="M737.657,301.309c0,1.333-1.08,2.414-2.413,2.414c-1.333,0-2.413-1.081-2.413-2.414
									c0-1.333,1.081-2.413,2.413-2.413C736.577,298.896,737.657,299.976,737.657,301.309z"/>
								<path style="fill:#FFFFFF;" d="M726.718,301.309c0,1.333-1.08,2.414-2.413,2.414c-1.333,0-2.414-1.081-2.414-2.414
									c0-1.333,1.081-2.413,2.414-2.413C725.637,298.896,726.718,299.976,726.718,301.309z"/>
							</g>
							<g>
								<rect x="640.966" y="313.904" style="fill:#889F33;" width="4.827" height="1.379"/>
								<rect x="661.996" y="313.904" style="fill:#889F33;" width="67.571" height="1.379"/>
								<rect x="640.966" y="319.42" style="fill:#889F33;" width="4.827" height="1.379"/>
								<polygon style="fill:#889F33;" points="661.996,319.42 661.996,320.799 713.364,320.799 713.364,319.765 724.396,319.765 
									724.396,320.799 725.086,320.799 725.086,319.42 								"/>
								<rect x="640.966" y="324.936" style="fill:#889F33;" width="4.827" height="1.38"/>
								<rect x="661.996" y="324.936" style="fill:#889F33;" width="45.163" height="1.38"/>
								<polygon style="fill:#889F33;" points="725.086,325.625 725.086,324.936 724.396,324.936 724.396,326.315 729.567,326.315 
									729.567,325.625 								"/>
								<polygon style="fill:#889F33;" points="661.996,330.452 661.996,331.141 645.793,331.141 645.793,330.452 640.966,330.452 
									640.966,331.831 679.923,331.831 679.923,330.452 								"/>
								<rect x="698.54" y="330.452" style="fill:#889F33;" width="8.62" height="1.379"/>
								<rect x="723.362" y="330.452" style="fill:#889F33;" width="6.551" height="1.379"/>
								<rect x="640.966" y="335.969" style="fill:#889F33;" width="21.03" height="1.379"/>
								<rect x="698.54" y="335.969" style="fill:#889F33;" width="34.131" height="1.379"/>
								<rect x="640.966" y="341.485" style="fill:#889F33;" width="21.03" height="1.379"/>
								<polygon style="fill:#889F33;" points="732.67,341.485 698.54,341.485 698.54,342.518 679.923,342.518 679.923,341.485 
									678.544,341.485 678.544,342.864 694.058,342.864 694.058,342.863 705.779,342.863 705.779,342.864 707.504,342.864 
									707.504,341.828 714.743,341.828 714.743,342.864 718.88,342.864 718.88,342.173 732.67,342.173 								"/>
								<polygon style="fill:#889F33;" points="694.058,347.001 678.544,347.001 678.544,347.345 661.996,347.345 661.996,347.001 
									640.966,347.001 640.966,348.38 694.058,348.38 								"/>
								<rect x="705.779" y="347.001" style="fill:#889F33;" width="1.724" height="1.379"/>
								<rect x="714.743" y="347.001" style="fill:#889F33;" width="4.137" height="1.379"/>
								<rect x="642" y="365.617" style="fill:#FF5821;" width="21.03" height="1.379"/>
								<rect x="681.302" y="365.617" style="fill:#FF5821;" width="4.137" height="1.379"/>
								<rect x="696.127" y="365.617" style="fill:#FF5821;" width="18.272" height="1.379"/>
								<rect x="641.656" y="372.168" style="fill:#FF5821;" width="21.375" height="1.379"/>
								<rect x="681.302" y="372.168" style="fill:#FF5821;" width="4.137" height="1.379"/>
								<rect x="696.127" y="372.168" style="fill:#FF5821;" width="2.413" height="1.379"/>
								<rect x="707.848" y="372.168" style="fill:#FF5821;" width="6.55" height="1.379"/>
								<rect x="641.311" y="378.718" style="fill:#FF5821;" width="21.719" height="1.379"/>
								<rect x="681.302" y="378.718" style="fill:#FF5821;" width="31.373" height="1.379"/>
							</g>
						</g>
						<g>
							<g>
								<rect x="764.901" y="333.887" style="fill:#353535;" width="90.829" height="68.444"/>
								<rect x="764.887" y="333.887" style="fill:#707070;" width="90.857" height="5.125"/>
							</g>
							<g>
								<path style="fill:#FF5821;" d="M850.973,336.38c0,0.984-0.797,1.781-1.781,1.781c-0.984,0-1.781-0.797-1.781-1.781
									c0-0.984,0.797-1.781,1.781-1.781C850.175,334.599,850.973,335.396,850.973,336.38z"/>
								<path style="fill:#889F33;" d="M842.424,336.38c0,0.984-0.797,1.781-1.781,1.781c-0.984,0-1.781-0.797-1.781-1.781
									c0-0.984,0.797-1.781,1.781-1.781C841.627,334.599,842.424,335.396,842.424,336.38z"/>
								<path style="fill:#FFFFFF;" d="M834.351,336.38c0,0.984-0.797,1.781-1.781,1.781c-0.984,0-1.781-0.797-1.781-1.781
									c0-0.984,0.798-1.781,1.781-1.781C833.554,334.599,834.351,335.396,834.351,336.38z"/>
							</g>
							<g>
								<rect x="770.511" y="347.912" style="fill:#FFFFFF;" width="12.66" height="0.487"/>
								<rect x="793.153" y="347.912" style="fill:#FFFFFF;" width="16.555" height="0.487"/>
								<rect x="784.875" y="347.912" style="fill:#FFFFFF;" width="6.817" height="0.487"/>
								<rect x="812.143" y="347.912" style="fill:#FFFFFF;" width="3.895" height="0.487"/>
								<rect x="816.769" y="347.912" style="fill:#FFFFFF;" width="20.451" height="0.487"/>
								<rect x="837.95" y="347.912" style="fill:#FFFFFF;" width="4.14" height="0.487"/>
								<rect x="842.575" y="347.912" style="fill:#FFFFFF;" width="6.817" height="0.487"/>
								<rect x="770.511" y="349.13" style="fill:#FFFFFF;" width="12.66" height="0.73"/>
								<rect x="784.875" y="349.13" style="fill:#FFFFFF;" width="6.817" height="0.73"/>
								<rect x="793.153" y="349.13" style="fill:#FFFFFF;" width="16.555" height="0.73"/>
								<rect x="812.143" y="349.13" style="fill:#FFFFFF;" width="3.895" height="0.73"/>
								<polygon style="fill:#FFFFFF;" points="816.769,349.13 816.769,349.86 828.698,349.86 828.698,349.373 829.429,349.373 
									829.429,349.86 837.219,349.86 837.219,349.13 								"/>
								<rect x="837.95" y="349.13" style="fill:#FFFFFF;" width="4.14" height="0.73"/>
								<rect x="842.575" y="349.13" style="fill:#FFFFFF;" width="6.817" height="0.73"/>
								<rect x="770.511" y="355.46" style="fill:#FFFFFF;" width="21.425" height="0.487"/>
								<rect x="792.423" y="355.46" style="fill:#FFFFFF;" width="8.521" height="0.487"/>
								<rect x="802.892" y="355.46" style="fill:#FFFFFF;" width="6.817" height="0.487"/>
								<rect x="812.143" y="355.46" style="fill:#FFFFFF;" width="16.555" height="0.487"/>
								<rect x="838.437" y="355.46" style="fill:#FFFFFF;" width="10.955" height="0.487"/>
								<rect x="829.429" y="355.46" style="fill:#FFFFFF;" width="7.791" height="0.487"/>
								<rect x="792.423" y="356.677" style="fill:#FFFFFF;" width="8.521" height="1.948"/>
								<rect x="770.511" y="356.677" style="fill:#FFFFFF;" width="21.425" height="1.948"/>
								<rect x="802.892" y="356.677" style="fill:#FFFFFF;" width="6.817" height="1.948"/>
								<polygon style="fill:#FFFFFF;" points="837.219,356.677 829.429,356.677 829.429,358.381 828.698,358.381 828.698,356.677 
									812.143,356.677 812.143,358.625 837.219,358.625 								"/>
								<polygon style="fill:#FFFFFF;" points="838.437,356.677 838.437,358.625 842.332,358.625 842.332,357.407 845.497,357.407 
									845.497,358.625 849.392,358.625 849.392,356.677 								"/>
								<polygon style="fill:#FFFFFF;" points="782.198,366.035 770.755,366.035 770.755,368.287 777.572,368.287 777.572,366.172 
									782.198,366.172 								"/>
								<rect x="825.533" y="366.035" style="fill:#FFFFFF;" width="3.408" height="0.137"/>
								<polygon style="fill:#FFFFFF;" points="838.68,366.035 838.68,366.172 843.063,366.172 843.063,368.287 849.636,368.287 
									849.636,366.035 								"/>
								<rect x="832.593" y="366.035" style="fill:#FFFFFF;" width="4.869" height="0.137"/>
								<rect x="792.666" y="379.805" style="fill:#FFFFFF;" width="8.521" height="0.867"/>
								<rect x="793.884" y="375.18" style="fill:#FFFFFF;" width="7.303" height="1.461"/>
								<polygon style="fill:#FFFFFF;" points="770.755,375.18 770.755,376.641 779.032,376.641 779.032,375.423 779.276,375.423 
									779.276,376.641 780.98,376.641 780.98,375.18 								"/>
								<rect x="781.224" y="375.18" style="fill:#FFFFFF;" width="9.252" height="1.461"/>
								<rect x="781.224" y="379.805" style="fill:#FFFFFF;" width="10.956" height="0.867"/>
								<rect x="770.755" y="379.805" style="fill:#FFFFFF;" width="8.277" height="0.867"/>
								<rect x="779.276" y="379.805" style="fill:#FFFFFF;" width="1.704" height="0.867"/>
								<rect x="803.135" y="375.18" style="fill:#FFFFFF;" width="5.6" height="1.461"/>
								<rect x="803.135" y="379.805" style="fill:#FFFFFF;" width="5.6" height="0.867"/>
								<rect x="832.593" y="375.18" style="fill:#FFFFFF;" width="4.869" height="1.461"/>
								<rect x="812.387" y="375.18" style="fill:#FFFFFF;" width="16.555" height="1.461"/>
								<rect x="811.549" y="388.681" style="fill:#FFFFFF;" width="16.555" height="1.461"/>
								<rect x="831.435" y="388.681" style="fill:#FFFFFF;" width="16.555" height="1.461"/>
								<rect x="812.387" y="379.805" style="fill:#FFFFFF;" width="16.799" height="0.867"/>
								<rect x="832.593" y="379.805" style="fill:#FFFFFF;" width="4.869" height="0.867"/>
								<rect x="838.68" y="375.18" style="fill:#FFFFFF;" width="3.895" height="1.461"/>
								<rect x="845.74" y="375.18" style="fill:#FFFFFF;" width="3.895" height="1.461"/>
								<rect x="838.68" y="379.805" style="fill:#FFFFFF;" width="3.895" height="0.867"/>
								<rect x="845.74" y="379.805" style="fill:#FFFFFF;" width="3.895" height="0.867"/>
								<polygon style="fill:#FFFFFF;" points="801.002,383.618 801.002,383.755 805.384,383.755 805.384,385.87 811.958,385.87 
									811.958,383.618 								"/>
								<rect x="794.915" y="392.763" style="fill:#FFFFFF;" width="4.869" height="1.461"/>
								<rect x="774.708" y="392.763" style="fill:#FFFFFF;" width="16.556" height="1.461"/>
								<rect x="774.708" y="397.389" style="fill:#FFFFFF;" width="16.799" height="0.868"/>
								<rect x="794.915" y="397.389" style="fill:#FFFFFF;" width="4.869" height="0.868"/>
								<rect x="801.002" y="392.763" style="fill:#FFFFFF;" width="3.895" height="1.461"/>
								<rect x="808.062" y="392.763" style="fill:#FFFFFF;" width="3.895" height="1.461"/>
								<rect x="801.002" y="397.389" style="fill:#FFFFFF;" width="3.895" height="0.868"/>
								<rect x="808.062" y="397.389" style="fill:#FFFFFF;" width="3.895" height="0.868"/>
								<rect x="770.511" y="344.26" style="fill:#FFFFFF;" width="12.66" height="1.704"/>
								<rect x="784.875" y="344.26" style="fill:#FFFFFF;" width="6.817" height="1.704"/>
								<rect x="793.153" y="344.26" style="fill:#FFFFFF;" width="16.555" height="1.704"/>
								<polygon style="fill:#FFFFFF;" points="837.219,345.965 837.219,344.26 812.143,344.26 812.143,345.965 816.039,345.965 
									816.039,344.747 816.769,344.747 816.769,345.965 								"/>
								<polygon style="fill:#FFFFFF;" points="837.95,344.26 837.95,345.965 842.089,345.965 842.089,345.478 842.575,345.478 
									842.575,345.965 849.392,345.965 849.392,344.26 								"/>
							</g>
						</g>
					</g>
					<g>
						<g>
							
								<rect x="706.713" y="490.347" transform="matrix(1 -0.0058 0.0058 1 -2.8323 4.2829)" style="fill:#9C9E8F;" width="68.658" height="5.582"/>
							<polygon style="fill:#C9CCBC;" points="573.569,491.322 569.416,496.929 724.312,496.026 724.28,490.445 							"/>
						</g>
						<polygon style="fill:#3D3D3D;" points="589.356,486.487 573.569,491.322 775.354,490.147 771.14,485.428 						"/>
					</g>
					<g>
						<path style="fill:#728425;" d="M862.07,496.929h-50.571c4.986-7.547,13.245-14.824,28.746-13.884
							c1.91,0.116,3.719,0.394,5.421,0.805C854.234,485.924,860.081,491.407,862.07,496.929z"/>
						<path style="fill:#889F33;" d="M862.07,496.929h-34.409c3.682-5.573,9.153-11.002,18.005-13.079
							C854.234,485.924,860.081,491.407,862.07,496.929z"/>
					</g>
				</g>
				<g>
					<path style="fill:#3D3D3D;" d="M952.546,486.284c0.411,5.937-4.068,10.751-10.005,10.751h-33.686
						c-5.938,0-10.149-4.814-9.407-10.751l8.513-68.089c0.742-5.937,4.639-10.751,8.703-10.751h23.059
						c4.064,0,7.692,4.814,8.104,10.751L952.546,486.284z"/>
					<path style="fill:#707070;" d="M943.379,484.403c0.328,4.641-3.25,8.403-7.992,8.403h-26.905c-4.742,0-8.106-3.762-7.513-8.403
						l6.799-53.219c0.592-4.641,3.705-8.403,6.951-8.403h18.416c3.246,0,6.144,3.762,6.473,8.403L943.379,484.403z"/>
					<g>
						<path style="fill:#3D3D3D;" d="M922.853,488.207c-9.785,0-17.745-7.96-17.745-17.745c0-9.785,7.961-17.745,17.745-17.745
							c9.784,0,17.744,7.961,17.744,17.745C940.597,480.248,932.637,488.207,922.853,488.207z M922.853,454.038
							c-9.056,0-16.424,7.368-16.424,16.425c0,9.056,7.368,16.425,16.424,16.425c9.056,0,16.424-7.369,16.424-16.425
							C939.277,461.406,931.909,454.038,922.853,454.038z"/>
						<path style="fill:#3D3D3D;" d="M922.853,456.848c-7.508,0-13.615,6.107-13.615,13.615c0,7.508,6.107,13.615,13.615,13.615
							c7.507,0,13.614-6.107,13.614-13.615C936.467,462.955,930.36,456.848,922.853,456.848z"/>
					</g>
					<g>
						<path style="fill:#3D3D3D;" d="M922.853,448.537c-5.533,0-10.035-4.501-10.035-10.035c0-5.533,4.502-10.034,10.035-10.034
							c5.532,0,10.034,4.501,10.034,10.034C932.887,444.036,928.385,448.537,922.853,448.537z M922.853,429.215
							c-5.121,0-9.288,4.166-9.288,9.287c0,5.121,4.166,9.288,9.288,9.288c5.12,0,9.287-4.167,9.287-9.288
							C932.14,433.381,927.973,429.215,922.853,429.215z"/>
						<path style="fill:#3D3D3D;" d="M922.853,430.803c-4.245,0-7.699,3.453-7.699,7.698c0,4.246,3.454,7.699,7.699,7.699
							c4.245,0,7.698-3.453,7.698-7.699C930.551,434.257,927.098,430.803,922.853,430.803z"/>
					</g>
				</g>
				<g>
					<g>
						<g>
							<g>
								<path style="fill:#212030;" d="M583.861,826.523c-8.395-4.749-15.455-18.436-18.827-26.847
									c-5.434-13.557-3.716,10.113-14.177,7.492c-4.292-1.074-7.118,5.298-8.12,8.995c-2.39,8.816-0.57,23.386,0.953,29.145
									c12.472,1.63,18.913,1.544,31.493,1.712c7.24,0.097,22.894,0.19,27.251-6.386
									C599.017,831.437,591.25,830.702,583.861,826.523z"/>
								<path style="fill:#FFA471;" d="M546.384,758.505c-0.208,10.429-1.883,20.251-0.934,30.983
									c0.805,9.105-1.546,23.346,5.745,30.007c14.358-7.126,14.245-39.684,18.216-53.66L546.384,758.505z"/>
								<path style="fill:#212030;" d="M537.423,790.658l28.802,1.822c0.872-3.664,1.726-7.342,2.573-11.039
									c11.889-51.867,30.372-108.59,33.828-163.217l-51.154-11.25c-9.129,1.076-14.374,32.852-15.939,43.901
									c-3.463,24.452-0.379,49.475,0.606,73.985C536.98,745.814,538.282,768.5,537.423,790.658z"/>
							</g>
							<g>
								<path style="fill:#212030;" d="M708.821,826.523c-8.395-4.749-15.455-18.436-18.827-26.847
									c-5.434-13.557-3.715,10.113-14.177,7.492c-4.292-1.074-7.117,5.298-8.12,8.995c-2.391,8.816-0.57,23.386,0.953,29.145
									c12.472,1.63,18.912,1.544,31.493,1.712c7.24,0.097,22.894,0.19,27.251-6.386
									C723.978,831.437,716.21,830.702,708.821,826.523z"/>
								<path style="fill:#FFA471;" d="M671.344,758.505c-0.208,10.429-1.883,20.251-0.934,30.983
									c0.805,9.105-1.546,23.346,5.746,30.007c14.358-7.126,14.245-39.684,18.216-53.66L671.344,758.505z"/>
								<path style="fill:#212030;" d="M727.584,618.224c-0.005,0.071-0.009,0.146-0.017,0.218
									c-2.407,37.686-11.957,76.374-21.543,113.767c-4.296,16.738-8.595,33.215-12.266,49.232c-0.846,3.697-1.7,7.373-2.57,11.04
									l-28.803-1.825c0.858-22.155-0.443-44.842-1.285-65.795c-0.984-24.512-4.07-49.534-0.608-73.987
									c0.339-2.395,0.854-5.765,1.541-9.587c1.721-9.57,4.542-21.962,8.494-28.941c1.746-3.086,3.714-5.112,5.907-5.371
									L727.584,618.224z"/>
							</g>
						</g>
						<path style="fill:#212030;" d="M727.567,618.442c-0.691,2.101-1.896,4.27-3.684,6.497
							c-6.979,8.699-20.467,12.852-35.442,14.783c-8.628,1.114-17.75,1.486-26.408,1.566c-10.245,0.092-19.84-0.231-27.191-0.231
							c-20.87,0-41.518,0.055-62.086-1.675c-11.165-0.938-25.286,0.009-37.377-1.603c-3.977-0.532-7.737-1.34-11.098-2.583
							l5.731-66.984c38.951-3.415,58.033-8.414,95.983-0.419C638.994,570.532,737.585,587.931,727.567,618.442z"/>
						<path style="fill:#171721;" d="M706.024,732.209c-4.296,16.738-8.595,33.215-12.266,49.232c-0.846,3.697-1.7,7.373-2.57,11.04
							l-28.803-1.825c0.858-22.155-0.443-44.842-1.285-65.795c-0.984-24.512-4.07-49.534-0.608-73.987
							c0.339-2.395,0.854-5.765,1.541-9.587c-10.245,0.092-19.84-0.231-27.191-0.231c-20.87,0-41.518,0.055-62.086-1.675
							c-11.165-0.938-25.286,0.009-37.377-1.603l3.358-31.913c3.915,5.722,30.812,4.685,39.215,5.023
							c18.55,0.753,36.82,0.314,55.27,1.256c11.148,0.569,24.29,0.113,37.305,0.201c14.527,0.1,28.899,0.887,40.19,4.546
							c-9.172,1.235-16.558,4.345-24.897,8.126c5.057,2.972,13.639,4.471,18.618,6.945c-6.682-0.774-11.911,2.42-15.997,7.758
							c-10.5,13.715-13.447,41.609-14.049,52.813c-0.666,12.35,0.419,29.388,11.375,37.431
							C692.861,735.181,699.438,734.357,706.024,732.209z"/>
					</g>
					<g>
						<g>
							<g>
								<path style="fill:#636363;" d="M556.445,286.046h-5.791c-6.212,0-11.265-4.971-11.265-11.082v-3.374
									c0-6.11,5.053-11.082,11.265-11.082h5.791c6.212,0,11.265,4.971,11.265,11.082v3.374
									C567.71,281.075,562.657,286.046,556.445,286.046z M550.655,262.429c-5.058,0-9.172,4.11-9.172,9.161v3.374
									c0,5.052,4.114,9.162,9.172,9.162h5.791c5.057,0,9.172-4.11,9.172-9.162v-3.374c0-5.052-4.115-9.161-9.172-9.161H550.655z"
									/>
								<g>
									<g>
										<path style="fill:#F2EDEE;" d="M551.2,280.19c-0.311,2.57-1.113,11.787-0.967,16.955
											c0.181,6.43,0.974,13.103,2.226,19.305c-7.083,2.602-17.778-6.229-22.378-10.902
											c-6.967-7.081-10.882-15.666-12.041-25.468L551.2,280.19z"/>
										<path style="fill:#F2F0EB;" d="M546.194,285.273c-4.159-0.068-7.076,6.751-7.441,10.232
											c-0.678,6.48,5.543,12.547,4.227,18.607c-4.791-1.844-10.541-8.081-14.212-11.743
											c-3.742-3.732-10.536-10.887-10.286-16.546L546.194,285.273z"/>
									</g>
									<path style="fill:#FFA471;" d="M555.858,293.877c-0.335,11.362-2.587,22.595-2.532,24.571c0,0,0,0-0.004,0.008
										c0.009,0.197,0.009,0.402-0.004,0.595c-0.013,0.867-0.143,1.733-0.515,2.52c-0.381,0.774-1.001,1.465-1.989,1.988
										c-4.073,2.152-9.369,2.349-14.393,1.39c-0.837-0.159-1.67-0.352-2.487-0.574c-0.561-0.146-1.109-0.31-1.654-0.486
										c-1.867-0.607-3.625-1.352-5.187-2.19c-2.319-1.247-4.203-2.7-5.359-4.199c-0.456-0.598-0.799-1.206-1.009-1.808
										c-0.013,0.272-0.029,0.565-0.042,0.883c-0.009,0.155-0.017,0.31-0.021,0.469c-0.004,0.063-0.008,0.13-0.008,0.197
										c-0.013,0.193-0.021,0.389-0.03,0.59c0,0.067-0.004,0.134-0.008,0.201v0.046c-0.008,0.172-0.013,0.343-0.021,0.519
										c-0.008,0.23-0.017,0.469-0.029,0.708c-0.009,0.247-0.017,0.502-0.025,0.766c-0.025,0.712-0.055,1.465-0.08,2.261
										c-0.038,1.21-0.075,2.478-0.113,3.78c-0.009,0.39-0.021,0.783-0.03,1.177c-0.063,2.282-0.117,4.643-0.167,6.941
										c-0.004,0.205-0.008,0.41-0.013,0.611c-0.038,1.641-0.067,3.249-0.096,4.764c-0.038,2.051-0.071,3.939-0.092,5.551
										c-0.05,3.169-0.067,5.254-0.05,5.341c-0.038,0.013-0.08,0.021-0.117,0.029c-3.177,0.85-8.113,1.239-13.794,1.219
										c-10.332-0.034-23.126-1.427-32.257-3.873l-0.004-0.004c-3.642-0.971-6.702-2.114-8.791-3.404
										c-0.737-0.452-1.348-0.925-1.826-1.411c-0.016-0.016-0.033-0.033-0.046-0.05c-0.084-0.084-0.159-0.172-0.234-0.26
										c1.055-1.884,1.796-6.087,2.328-11.387c0.058-0.586,0.117-1.185,0.167-1.796c0.084-0.917,0.155-1.863,0.226-2.83
										c0.235-3.24,0.41-6.715,0.548-10.211c0.264-6.903,0.368-13.895,0.444-19.337v-0.004c0.042-2.876,0.071-5.321,0.113-7.092
										c0.034-1.357,0.042-2.537,0.029-3.5c-0.188-11.772-1.557-23.499-2.386-35.3c-1.264-18.094,72.949-14.305,72.949-14.305
										c5.597,4.295,7.473,10.633,9.009,17.604c0.025,0.117,0.05,0.234,0.075,0.352c0.469,2.144,0.913,4.345,1.424,6.569
										c0.059,0.255,0.122,0.515,0.184,0.77c0.05,0.213,0.105,0.431,0.155,0.645c0.005,0.013,0.005,0.021,0.008,0.034
										c0.021,0.083,0.042,0.163,0.063,0.247c0.197,0.783,0.402,1.57,0.624,2.353c0.1,0.339,0.197,0.674,0.301,1.013
										c0.435,1.423,0.93,2.842,1.511,4.245c0.23,0.226,0.448,0.469,0.657,0.72c0.398,0.473,0.766,0.988,1.101,1.541
										c1.344,2.189,2.227,4.965,2.775,8.063C555.829,285.052,555.988,289.473,555.858,293.877z"/>
								</g>
								<path style="fill:#E07F4F;" d="M552.8,321.569c-0.38,0.776-0.999,1.469-1.988,1.991c-10.144,5.358-27.861-1.42-30.086-7.866
									c-0.442,8.521-1.238,40.82-0.885,42.474c-12.123,3.33-50.649-7.902-57.01-15.422c3.706-6.632,3.572-41.947,3.825-52.656
									l51.068-11.955c0.753,1.422-0.099,4.474-0.161,6.287c-0.082,2.314-0.04,4.753,0.11,7.063
									c0.281,4.399,1.507,8.974,3.409,13.042c3.518,7.525,10.289,15.608,18.8,17.577
									C543.447,322.928,548.558,323.017,552.8,321.569z"/>
								<path style="fill:#FFA471;" d="M560.459,287.112c-0.341-0.614-2.542-1.65-3.189-2.374c-1.379-1.543-2.087-3.664-3.032-5.471
									c-1.293-2.472-3.096-7.428-4.944-8.564l0.772,24.339C552.877,294.07,564.319,294.059,560.459,287.112z"/>
								<g>
									<g>
										<g>
											<path style="fill:#121C26;" d="M552.363,273.075c-0.117,0.109-0.238,0.201-0.364,0.28
												c-0.339,0.218-0.708,0.352-1.101,0.385c-0.838,0.067-1.654-0.331-2.34-1.055c-0.954-1.005-1.645-2.642-1.809-4.538
												c-0.063-0.745-0.038-1.469,0.067-2.139c0.188-1.269,0.645-2.353,1.281-3.086c0.005,0.013,0.005,0.021,0.008,0.034
												c0.021,0.083,0.042,0.163,0.063,0.247c0.197,0.783,0.402,1.57,0.624,2.353c0.1,0.339,0.197,0.674,0.301,1.013
												c0.435,1.423,0.93,2.842,1.511,4.245c0.23,0.226,0.448,0.469,0.657,0.72
												C551.659,272.007,552.028,272.522,552.363,273.075z"/>
										</g>
										<path style="fill:#121C26;" d="M548.792,265.556c-0.683,0.105-1.352,0.26-1.976,0.453c-1.679,0.515-3.023,1.31-3.37,2.256
											c0.439-2.717,2.127-5.007,4.496-5.986c0.05,0.213,0.105,0.431,0.155,0.645c0.005,0.013,0.005,0.021,0.008,0.034
											c0.021,0.083,0.042,0.163,0.063,0.247C548.364,263.986,548.57,264.773,548.792,265.556z"/>
									</g>
									<path style="fill:#49211C;" d="M550.451,256.102c-1.686-1.714-6.181-2.201-8.982-0.327
										c-2.982,1.62-6.738,5.885-6.207,7.238c0.253,1.108,7.924-0.4,9.79-0.882C546.881,261.527,555.007,260.924,550.451,256.102z
										"/>
								</g>
								<path style="fill:#49211C;" d="M463.182,230.341c6.605-19.434,25.997-17.188,48.284-16.42
									c23.795,0.818,41.256,9.798,41.256,9.798c-0.344,15.501,1.117,16.455-5.051,30.556c-3.87,0.52-16.273,21.459-31.385,10.457
									c5.496,9.467,6.223,33.635,1.187,44.33c-4.609,9.785-8.092,3.288-15.964,8.981c-1.533-2.799-3.751-5.58-5.975-7.499
									c0.855,5.543,2.715,11.355,1.78,17.152c-6.533,3.573-12.546,3.874-20.134,4.225c-10.978,0.508-12.377-0.602-15.594-10.513
									c-4.935-15.205-4.085-23.209-10.995-37.679C445.341,268.685,435.221,244.641,463.182,230.341z"/>
								<polygon style="fill:#636363;" points="513.877,278.738 566.036,269.709 566.664,272.849 515.944,281.866 								"/>
								<g>
									<path style="fill:#FFA471;" d="M506.194,277.875c6.692-7.675,14.513,2.003,17.623,5.827c0,0-0.075,13.338-3.671,16.424
										c-4.353,3.734-10.666,0.169-13.451-3.615C502.998,291.487,501.182,283.626,506.194,277.875z"/>
									<path style="fill:#E07F4F;" d="M506.461,282.129c2.096-5.824,7.661-3.021,10.118,0.899
										c-8.588-3.258-9.514,6.662-7.374,12.27C507.108,291.355,504.791,286.775,506.461,282.129z"/>
								</g>
							</g>
							<path style="fill:#FF5821;" d="M586.525,570.591c-0.147,0.079-0.297,0.159-0.448,0.238
								c-10.198,5.347-29.473,10.713-41.505,13.297c-3.044,0.649-5.618,1.126-7.473,1.377c-20.459,2.788-40.249,2.478-60.188-1.955
								c-5.263-19.216-17.424-36.95-21.887-56.572c-5.154-22.665-13.723-55.487-14.811-79.024
								c-0.808-17.416-11.91-62.743-10.856-80.292c0.775-12.894,18.228,1.252,22.465-10.24l0.126-10.512
								c-0.8-6.33-1.926-13.004-0.879-19.522c19.262-0.745,45.804-3.249,62.818,4.789c15.281,7.222,33.739,9.713,47.282,21.92
								c7.787,7.012,10.265,66.242,14.234,119.8c3.178,42.856,7.301,82.084,15.863,88.037
								C594.873,564.445,592.248,567.509,586.525,570.591z"/>
						</g>
						<path style="fill:#D83A0F;" d="M586.077,570.829c-10.198,5.347-29.473,10.713-41.505,13.297
							c-3.442-26.76,6.242-66.272,1.21-85.613c-5.225-20.062-6.874-37.435-10.047-57.769c-1.381-8.863,0.197-27.354-0.251-36.271
							c-0.322-6.376,1.306-14.213-0.841-20.053l21.77,53.587c1.725,13.761,12.078,24.202,18.99,35.891
							c3.178,42.856,7.301,82.084,15.863,88.037C592.294,562.649,594.763,566.33,586.077,570.829z"/>
						<g>
							<g>
								
									<ellipse transform="matrix(0.1602 -0.9871 0.9871 0.1602 112.3244 777.4968)" style="fill:#212030;" cx="513.081" cy="322.738" rx="23.444" ry="23.444"/>
								
									<ellipse transform="matrix(0.0453 -0.999 0.999 0.0453 171.0223 824.431)" style="fill:#3C3C56;" cx="516.849" cy="322.738" rx="17.165" ry="17.164"/>
								
									<ellipse transform="matrix(0.7071 -0.7071 0.7071 0.7071 -75.6635 462.8073)" style="fill:#212030;" cx="520.826" cy="322.738" rx="11.513" ry="11.513"/>
							</g>
							<path style="fill:#8A8A8E;" d="M521.664,318.272c-19.005,6.048-49.451,1.63-67.642-5.705
								c0.084,3.682-0.811,11.682-0.598,15.334c9.299,4.09,19.006,4.529,29.305,5.024c10.685,0.513,30.501-2.278,40.19-6.699
								L521.664,318.272z"/>
							<path style="fill:#8A8A8E;" d="M527.106,322.04c0,2.543-2.062,4.605-4.605,4.605c-2.544,0-4.605-2.062-4.605-4.605
								c0-2.543,2.062-4.605,4.605-4.605C525.045,317.435,527.106,319.497,527.106,322.04z"/>
						</g>
						<g>
							<path style="fill:#FF5821;" d="M611.016,494.074c-0.339,0.281-0.682,0.557-1.034,0.825c-5.405,4.132-12.43,6.288-26.04-4.283
								c-1.528-1.185-3.136-2.529-4.831-4.048c-10.822-9.683-19.827-29.225-28.154-40.613c-0.955-1.306-1.909-2.654-2.859-4.048
								c-13.669-20.003-26.58-48.592-26.233-72.64c0.147-10.136,2.466-17.822,12.25-20.597c6.581-1.867,18.948-9.248,34.902,16.093
								c0,0,26.111,54.604,38.239,93.107C612.917,475.846,615.533,490.315,611.016,494.074z"/>
							<g>
								<path style="fill:#FFA471;" d="M702.846,469.305c-9.683-3.223-21.441,2.996-30.26,6.876l8.94,9.181
									c6.826,1.31,9.655,1.354,16.511,1.16c18.752-0.531,20.609,2.417,26.915,0.725
									C723.576,478.913,712.403,472.486,702.846,469.305z"/>
								<path style="fill:#FF5821;" d="M688.85,487.368c-0.803,1.679-19.09,6.309-37.079,10.278
									c-14.958,3.295-29.716,6.133-34.04,6.431c-13.141,0.896-26.019-3.944-33.789-13.46c-4.032-4.936-6.69-11.124-7.301-18.425
									c-0.046-0.507-0.08-1.022-0.1-1.54l16.683-12.606c4.756-1.026,9.311-0.938,14.033-0.176
									c16.708,2.688,35.501,13.828,72.736,14.138C679.992,472.008,690.726,483.436,688.85,487.368z"/>
							</g>
						</g>
						<g>
							<g>
								<path style="fill:#D83A0F;" d="M651.771,497.645c-14.958,3.295-29.716,6.133-34.04,6.431
									c-13.141,0.896-26.019-3.944-33.789-13.46c-1.528-1.185-3.136-2.529-4.831-4.048c-10.822-9.683-19.827-29.225-28.154-40.613
									c-0.955-1.306-1.909-2.654-2.859-4.048c-6.623-19.429-14.274-30.89-13.617-50.772c6.907,32.025,35.893,72.394,42.16,81.056
									c5.074,7.021,10.835,13.573,17.935,19.312c-0.871-4.689-0.657-9.997-0.297-14.732c3.797,9.424,9.051,14.992,15.703,18.128
									c7.28,3.433,16.239,3.956,26.81,3.433C641.64,498.094,646.706,497.905,651.771,497.645z"/>
							</g>
						</g>
					</g>
					<g>
						<g>
							<g>
								<g>
									<path style="fill:#44283E;" d="M428.475,711.465c0,2.627-1.479,4.758-3.302,4.758h-22.205
										c-1.824,0-3.303-2.131-3.303-4.758l0,0c0-2.626,1.479-4.758,3.303-4.758h22.205
										C426.996,706.707,428.475,708.839,428.475,711.465L428.475,711.465z"/>
								</g>
								<g>
									<path style="fill:#44283E;" d="M418.743,713.515c7.835-1.249,15.827-0.665,23.662-1.965
										c7.926-1.315,14.455-5.682,20.978-10.106c6.438-4.369,12.806-8.887,19.967-12.02c7.722-3.378,16.639-3.197,24.855-4.337
										c2.413-0.335,1.382-3.988-1.008-3.656c-8.24,1.144-16.901,1.083-24.711,4.276c-7.179,2.937-13.569,7.379-19.941,11.731
										c-6.638,4.533-13.096,9-21.148,10.458c-7.798,1.412-15.828,0.716-23.661,1.967
										C415.327,710.244,416.353,713.898,418.743,713.515L418.743,713.515z"/>
								</g>
							</g>
						</g>
						<g>
							<path style="fill:#553D57;" d="M666.635,648.136v5.838c0,6.281-5.09,11.372-11.372,11.372h-259.27
								c-6.281,0-11.372-5.091-11.372-11.372v-5.838c0-6.281,5.091-11.372,11.372-11.372h259.27
								C661.545,636.763,666.635,641.855,666.635,648.136z"/>
							<path style="fill:#44283E;" d="M678.497,636.763v1.039c0,7.081-4.894,13.154-11.862,15.724v0.447
								c0,6.281-5.09,11.372-11.372,11.372H495.492c-5.986,0-10.899-4.629-11.338-10.508c-0.023-0.285-0.034-0.573-0.034-0.865
								v-5.838c0-6.281,5.095-11.372,11.372-11.372H678.497z"/>
						</g>
						<g>
							<polygon style="fill:#44283E;" points="543.463,696.541 514.663,696.541 425.51,651.055 631.107,651.055 							"/>
							<polygon style="fill:#553D57;" points="532.297,696.54 514.351,696.54 425.196,651.055 489.336,651.055 							"/>
						</g>
						<rect x="521.186" y="698.816" style="fill:#44283E;" width="13.899" height="48.521"/>
						<g>
							<rect x="521.884" y="720.043" style="opacity:0.7;fill:#49363E;" width="9.735" height="72.659"/>
							<rect x="517.016" y="720.043" style="fill:#44283E;" width="22.239" height="72.659"/>
							<rect x="517.016" y="720.043" style="fill:#69698E;" width="9.736" height="72.659"/>
						</g>
						<g>
							<path style="fill:#553D57;" d="M546.328,701.214c0,2.585-1.65,4.677-3.685,4.677h-28.982c-2.034,0-3.684-2.093-3.684-4.677
								c0-1.293,0.412-2.459,1.079-3.306c0.667-0.845,1.587-1.368,2.605-1.368h28.982
								C544.677,696.54,546.328,698.633,546.328,701.214z"/>
							<path style="fill:#44283E;" d="M546.328,701.214c0,2.585-1.65,4.677-3.685,4.677h-10.803c-2.036,0-3.685-2.093-3.685-4.677
								c0-1.293,0.411-2.459,1.079-3.306c0.667-0.845,1.59-1.368,2.607-1.368h10.803
								C544.677,696.54,546.328,698.633,546.328,701.214z"/>
						</g>
						<g>
							<g>
								<g>
									<path style="fill:#44283E;" d="M535.703,787.872v40.641c0,2.207-1.027,4.174-2.631,5.443
										c-0.557,0.449-1.186,0.808-1.869,1.065c-0.762,0.289-1.588,0.444-2.449,0.444c-0.86,0-1.687-0.155-2.448-0.444
										c-0.683-0.258-1.312-0.617-1.873-1.065c-0.208-0.163-0.405-0.337-0.595-0.527c-1.258-1.258-2.036-2.998-2.036-4.917
										v-40.641c0-2.202,1.027-4.169,2.63-5.44c0.561-0.446,1.19-0.807,1.873-1.063c0.762-0.289,1.588-0.445,2.448-0.445
										c0.861,0,1.687,0.156,2.449,0.445c0.682,0.257,1.311,0.617,1.869,1.063c0.209,0.165,0.405,0.338,0.595,0.528
										C534.926,784.219,535.703,785.955,535.703,787.872z"/>
								</g>
								<path style="fill:#553D57;" d="M529.753,813.343c0,0.553-0.448,1.001-1,1.001l0,0c-0.553,0-1.001-0.448-1.001-1.001v-23.777
									c0-0.552,0.448-1,1.001-1l0,0c0.552,0,1,0.447,1,1V813.343z"/>
							</g>
							<g>
								<g>
									<rect x="522.872" y="812.392" style="fill:#44283E;" width="9.419" height="13.66"/>
									<rect x="522.872" y="812.392" style="fill:#69698E;" width="3.543" height="13.66"/>
								</g>
								<g>
									<g>
										<path style="fill:#2D2D3F;" d="M523.957,834.995c0,7.582-6.146,13.727-13.727,13.727c-7.582,0-13.727-6.145-13.727-13.727
											c0-7.582,6.145-13.727,13.727-13.727C517.811,821.268,523.957,827.414,523.957,834.995z"/>
										<path style="fill:#1D1D28;" d="M517.093,834.995c0,3.792-3.073,6.865-6.863,6.865c-3.79,0-6.864-3.073-6.864-6.865
											c0-3.791,3.073-6.864,6.864-6.864C514.021,828.131,517.093,831.205,517.093,834.995z"/>
									</g>
									<g>
										<g>
											<path style="fill:#69698E;" d="M533.997,830.415h-39.769c0.435-7.064,9.165-12.7,19.882-12.7
												c1.496,0,2.952,0.109,4.356,0.319C527.106,819.314,533.621,824.336,533.997,830.415z"/>
											<path style="fill:#44283E;" d="M533.997,830.415h-31.061c0.38-6.079,6.896-11.101,15.53-12.381
												C527.106,819.314,533.621,824.336,533.997,830.415z"/>
										</g>
									</g>
								</g>
							</g>
						</g>
						<g>
							<g>
								<g>
									<rect x="401.004" y="810.613" style="fill:#44283E;" width="9.42" height="13.66"/>
									<rect x="401.004" y="810.613" style="fill:#49363E;" width="3.544" height="13.66"/>
								</g>
								<g>
									<g>
										<path style="fill:#2D2D3F;" d="M402.091,833.215c0,7.583-6.147,13.728-13.728,13.728s-13.727-6.146-13.727-13.728
											c0-7.581,6.146-13.727,13.727-13.727S402.091,825.634,402.091,833.215z"/>
										<path style="fill:#1D1D28;" d="M395.226,833.215c0,3.792-3.073,6.865-6.864,6.865s-6.864-3.074-6.864-6.865
											c0-3.79,3.073-6.863,6.864-6.863S395.226,829.425,395.226,833.215z"/>
									</g>
									<g>
										<g>
											<path style="fill:#69698E;" d="M412.13,828.635H372.36c0.435-7.063,9.166-12.7,19.882-12.7
												c1.496,0,2.952,0.109,4.356,0.319C405.238,817.534,411.754,822.557,412.13,828.635z"/>
											<path style="fill:#44283E;" d="M412.13,828.635h-31.061c0.38-6.078,6.896-11.101,15.53-12.381
												C405.238,817.534,411.754,822.557,412.13,828.635z"/>
										</g>
									</g>
								</g>
							</g>
							<path style="fill:#44283E;" d="M517.08,771.063c-7.702,1.361-110.69,23.547-124.08,37.273
								c-3.597,3.687,5.353,5.758,9.349,5.006l114.73-21.588V771.063z"/>
							<path style="fill:#69698E;" d="M517.08,771.063l0.001,10.74c-17.195,2.813-108.191,18.065-123.128,27.726
								c-0.896,0.578-1.008,1.421-0.853,2.042c-1.076-0.841-1.364-1.938-0.098-3.233C406.39,794.612,509.381,772.424,517.08,771.063
								z"/>
							<path style="fill:#69698E;" d="M517.001,771.063v2.274c-7.433,1.317-105.931,22.166-124.756,35.956
								c0.133-0.302,0.356-0.622,0.678-0.954C406.312,794.612,509.303,772.424,517.001,771.063z"/>
						</g>
						<g>
							<g>
								<g>
									<rect x="645.88" y="810.613" style="fill:#44283E;" width="9.42" height="13.66"/>
									<rect x="651.755" y="810.613" style="fill:#49363E;" width="3.544" height="13.66"/>
								</g>
								<g>
									<g>
										<path style="fill:#2D2D3F;" d="M654.214,833.215c0,7.583,6.146,13.728,13.727,13.728c7.582,0,13.728-6.146,13.728-13.728
											c0-7.581-6.146-13.727-13.728-13.727C660.36,819.488,654.214,825.634,654.214,833.215z"/>
										<path style="fill:#1D1D28;" d="M661.077,833.215c0,3.792,3.074,6.865,6.863,6.865c3.791,0,6.865-3.074,6.865-6.865
											c0-3.79-3.074-6.863-6.865-6.863C664.151,826.352,661.077,829.425,661.077,833.215z"/>
									</g>
									<g>
										<g>
											<path style="fill:#69698E;" d="M644.175,828.635h39.768c-0.434-7.063-9.165-12.7-19.882-12.7
												c-1.496,0-2.952,0.109-4.357,0.319C651.065,817.534,644.549,822.557,644.175,828.635z"/>
											<path style="fill:#44283E;" d="M644.175,828.635h31.06c-0.38-6.078-6.896-11.101-15.53-12.381
												C651.065,817.534,644.549,822.557,644.175,828.635z"/>
										</g>
									</g>
								</g>
							</g>
							<path style="fill:#44283E;" d="M539.224,771.063c7.702,1.361,110.69,23.547,124.079,37.273
								c3.597,3.687-5.352,5.758-9.349,5.006l-114.73-21.588V771.063z"/>
							<path style="fill:#69698E;" d="M539.224,771.063l-0.001,10.74c17.195,2.813,108.191,18.065,123.127,27.726
								c0.896,0.578,1.008,1.421,0.852,2.042c1.077-0.841,1.365-1.938,0.099-3.233C649.914,794.612,546.923,772.424,539.224,771.063
								z"/>
							<path style="fill:#69698E;" d="M539.303,771.063v2.274c7.433,1.317,105.931,22.166,124.755,35.956
								c-0.133-0.302-0.356-0.622-0.678-0.954C649.992,794.612,547.001,772.424,539.303,771.063z"/>
						</g>
						<g>
							<path style="fill:#553D57;" d="M638.278,515.737c-4.204-2.57-13.035-3.033-17.822-3.033h-84.675
								c2.851,7.433,5.164,15.114,7.569,22.744h79.19c0.034,0.007,0.068,0.018,0.102,0.026c0,0,0,0,0.004,0
								c0.015,0.008,0.026,0.016,0.042,0.027c0.003-0.004,0.007,0,0.011,0.008c0.239,0.19,0.485,0.394,0.667,0.576
								c0.004,0.004,0.008,0.011,0.008,0.011c0.019,0.027,0.035,0.053,0.053,0.08c0.174,0.269,0.334,0.547,0.486,0.83
								c0.003,0.004,0.003,0.004,0.003,0.008c0.182,0.565,0.338,1.133,0.467,1.713c0,0.003,0,0.003,0,0.003
								c0.098,1.824,0.03,3.666,0.03,5.485v74.643c0,6.198,5.174,11.373,11.372,11.373c0.921,0,1.815-0.114,2.676-0.334
								c4.943-1.224,8.696-5.762,8.696-11.039v-78.79C647.157,530.319,646.701,520.892,638.278,515.737z"/>
							<path style="fill:#553D57;" d="M622.809,535.373c-0.083-0.103-0.125-0.156-0.136-0.175c0.011,0.004,0.072,0.076,0.155,0.178
								C622.824,535.373,622.816,535.373,622.809,535.373z"/>
							<path style="fill:#553D57;" d="M622.877,535.46c0-0.004-0.003-0.004-0.003-0.008c0.007,0,0.011,0,0.018,0.004
								c0.005,0.004,0.008,0.011,0.012,0.015C622.896,535.467,622.885,535.464,622.877,535.46z"/>
							<path style="fill:#553D57;" d="M623.113,535.744c-0.053-0.063-0.099-0.118-0.137-0.169c0.003,0.003,0.011,0.003,0.019,0.007
								c0.041,0.053,0.083,0.11,0.125,0.167C623.116,535.744,623.113,535.744,623.113,535.744z"/>
							<path style="fill:#44283E;" d="M631.149,524.077c-4.2-2.57-14.265-3.033-19.056-3.033h-73.334
								c1.599,4.772,3.076,9.599,4.591,14.405h79.19c0.034,0.007,0.068,0.018,0.102,0.026c0,0,0,0,0.004,0
								c0.015,0.008,0.026,0.016,0.042,0.027c0.003-0.004,0.007,0,0.011,0.008c0.239,0.19,0.485,0.394,0.667,0.576
								c0.004,0.004,0.008,0.011,0.008,0.011c0.019,0.027,0.035,0.053,0.053,0.08c0.174,0.269,0.334,0.547,0.486,0.83
								c0.003,0.004,0.003,0.004,0.003,0.008c0.182,0.565,0.338,1.133,0.467,1.713c0,0.003,0,0.003,0,0.003
								c0.098,1.824,0.03,3.666,0.03,5.485v74.643c0,6.198,5.174,11.373,11.372,11.373c0.921,0,1.815-0.114,2.676-0.334
								c0.223-0.868,0.337-1.77,0.337-2.698v-78.79C638.798,538.659,639.576,529.232,631.149,524.077z"/>
							<path style="fill:#717199;" d="M627.358,519.432c9.594,0.139,13.953,8.914,13.742,17.533c-0.046,1.834,2.797,1.83,2.842,0
								c0.127-5.146-0.988-10.529-4.301-14.605c-3.058-3.762-7.469-5.7-12.283-5.77
								C625.524,516.563,625.526,519.406,627.358,519.432L627.358,519.432z"/>
						</g>
						<g>
							<g>
								<path style="fill:#00B8D6;" d="M374.941,337.797c0.02,8.75,7.13,15.827,15.88,15.808l70.885-0.162
									c8.751-0.02,15.829-7.13,15.809-15.88l-0.058-25.357c-0.02-8.751-7.13-15.828-15.88-15.808l-70.886,0.161
									c-8.75,0.02-15.828,7.129-15.808,15.881L374.941,337.797z"/>
								<path style="opacity:0.2;fill:#663445;" d="M374.981,338.979c0.621,8.196,7.481,14.645,15.831,14.626l70.886-0.161
									c8.751-0.02,15.829-7.13,15.809-15.881l-0.056-25.356c-0.019-8.412-6.591-15.277-14.872-15.778
									c0.032,0.392,0.047,0.785,0.048,1.183l0.059,25.355c0.02,8.751-7.058,15.861-15.809,15.882l-70.886,0.16
									C375.653,339.011,375.316,339,374.981,338.979z"/>
							</g>
							<path style="fill:#00B8D6;" d="M563.633,582.764c-0.494,11.023,0.272,25.538-2.792,37.105
								c-0.398,1.503-0.859,2.956-1.398,4.346c-0.029,0.092-0.067,0.184-0.105,0.276c-0.226,0.578-5.589,31.126-5.849,31.679
								c-25.341,0.314-59.222,0.917-90.026,1.18c-17.387,0.146-33.793,0.185-47.131,0c-19.178-0.263-32.022-0.992-32.328-2.516
								c-7.929,0-14.757-7.016-15.494-16.198l-1.047-13.066l-0.322-4.036l-20.308-253.101c-0.071-0.871-0.084-1.729-0.042-2.575
								c0.406-8.469,6.204-15.406,13.832-16.017c1.767-0.754,8.687-1.842,17.219-2.939c3.835-0.49,7.992-0.984,12.154-1.453
								c10.102-1.135,57.426-2.286,85.68-0.452c0.004-0.005,0.004-0.005,0.009,0c5.028,0.322,9.453,0.745,12.957,1.277
								c24.097,3.65,35.284,17.457,39.415,41.839c0.138,0.837,0.285,1.675,0.427,2.517c1.248,7.293,2.516,14.582,3.806,21.879
								c0.553,3.11,1.105,6.221,1.662,9.336c2.424,13.497,4.923,27.024,7.485,40.592c0.411,2.194,0.829,4.388,1.243,6.586
								c0.172,0.896,0.352,1.8,0.54,2.7c5.161,24.83,16.222,49.379,18.797,74.46c0.465,4.559,0.892,9.164,1.206,13.791
								C563.742,567.546,563.968,575.178,563.633,582.764z"/>
							<path style="opacity:0.2;fill:#663445;" d="M520.831,605.927c-2.294,5.656-6.225,10.244-11.375,13.941
								c-37.142,26.655-137.567,6.749-141.993,5.702l-0.322-4.036l-20.308-253.101c-0.071-0.871-0.084-1.729-0.042-2.575
								c2.767-0.762,5.564-1.603,8.348-2.449c6.795-2.073,13.527-4.187,19.697-5.308c1.382-0.255,2.738-0.456,4.057-0.599
								c21.309-2.277,41.865-0.184,62.805,1.042c18.295,1.072,40.006,0.842,55.022,12.807c15.268,12.166,15.31,33.94,17.763,51.255
								c5.635,39.742,10.156,81.808,10.114,123.028C524.577,564,527.579,589.286,520.831,605.927z"/>
						</g>
						<path style="fill:#00B8D6;" d="M679.334,636.911v3.404c0,7.079-7.222,13.154-17.504,15.724
							c-3.378,0.841-7.079,1.31-10.969,1.31h-234.53c-19.178-0.263-32.022-0.992-32.328-2.516c-7.929,0-14.757-7.016-15.494-16.198
							l-1.047-13.066l-0.322-4.036c3.722-1.067,7.888-1.666,12.292-1.666h271.429C666.587,619.868,679.334,627.496,679.334,636.911z
							"/>
					</g>
				</g>
			</g>
			<g>
				<path style="fill:#FF2E2E;" d="M797.729,463.698c0,0.952-0.023,1.895-0.071,2.827c-0.001,0.029-0.003,0.058-0.004,0.087
					c-0.001,0.015-0.001,0.029-0.004,0.044c0,0.016-0.001,0.033-0.002,0.047c-0.012,0.232-0.025,0.464-0.041,0.693
					c-0.352,5.341-1.457,10.344-3.154,14.761c-1.242,3.237-2.802,6.159-4.613,8.671c-1.885,2.616-4.045,4.785-6.407,6.4h-19.935
					c-2.181-1.491-4.191-3.456-5.971-5.809c-5.103-6.74-8.326-16.66-8.326-27.721c0-2.936,0.228-5.791,0.657-8.529h47.214
					c0.336,2.144,0.548,4.36,0.625,6.63C797.719,462.43,797.729,463.062,797.729,463.698z"/>
				<path style="fill:#FF2E2E;" d="M797.626,466.368c-0.075-0.307,0.041,0.534,0.027,0.217c-0.013-0.316-0.098,0.523-0.034,0.204
					c0.105-0.531-0.186,0.301,0.031-0.09c0.046-0.082,0.1-0.16,0.154-0.238c0.212-0.309-0.292,0.354-0.038,0.056
					c0.177-0.207,0.376-0.394,0.578-0.576c0.095-0.086,0.194-0.167,0.293-0.249c0.354-0.292-0.33,0.244,0.05-0.039
					c0.233-0.174,0.475-0.337,0.719-0.496c0.581-0.381,1.189-0.719,1.803-1.04c0.61-0.318,1.235-0.606,1.866-0.878
					c-0.363,0.157,0.168-0.066,0.197-0.078c0.162-0.066,0.324-0.128,0.487-0.19c0.376-0.144,0.757-0.278,1.139-0.406
					c0.626-0.21,1.261-0.392,1.902-0.55c0.297-0.073,0.597-0.137,0.897-0.195c0.143-0.027,0.287-0.051,0.43-0.075
					c0.348-0.057-0.364,0.036,0.185-0.022c1.389-0.147,2.329,0.044,3.644,0.519c0.568,0.205-0.303-0.148,0.237,0.099
					c0.166,0.076,0.326,0.162,0.486,0.247c0.312,0.167,0.607,0.365,0.895,0.571c-0.31-0.222,0.134,0.119,0.159,0.141
					c0.129,0.112,0.252,0.232,0.373,0.352c0.121,0.119,0.234,0.246,0.345,0.374c0.138,0.168,0.146,0.172,0.026,0.015
					c0.067,0.09,0.133,0.181,0.196,0.274c0.193,0.277,0.358,0.572,0.512,0.871c0.021,0.039,0.239,0.548,0.086,0.172
					c0.065,0.158,0.118,0.32,0.171,0.483c0.108,0.33,0.184,0.669,0.249,1.01c0.107,0.565-0.032-0.375,0.027,0.204
					c0.024,0.24,0.031,0.482,0.036,0.723c0.026,1.34-0.463,3.007-1.026,4.197c-1.341,2.837-3.611,4.618-6.443,6.088
					c-1.462,0.759-2.698,1.224-4.364,1.766c-1.57,0.512-3.172,0.925-4.779,1.3c-2.237,0.523-4.598,0.844-6.741,1.691
					c-1.314,0.52-2.461,1.204-3.28,2.386c-0.898,1.297-0.685,2.953-0.097,4.312c1.211,2.8,4.145,3.476,6.788,2.332
					c1.03-0.446,2.001-1.468,2.225-2.588c0.326-1.639-0.59-2.912-1.886-3.806c-0.843-0.58-2.078-0.159-2.565,0.673
					c-0.546,0.931-0.167,1.987,0.672,2.565c0.455,0.313-0.24-0.23,0.12,0.102c0.338,0.311-0.193-0.321,0.036,0.023
					c0.223,0.335-0.122-0.406-0.015-0.047c-0.132-0.442-0.025-0.322-0.033-0.105c0.022-0.571-0.089,0.011,0.127-0.479
					c-0.052,0.118-0.269,0.406,0.07-0.034c-0.066,0.087-0.146,0.162-0.225,0.237c-0.219,0.208,0.351-0.222-0.09,0.05
					c-0.104,0.065-0.216,0.117-0.327,0.17c0.464-0.22,0.084-0.047-0.027-0.012c-0.124,0.039-0.251,0.066-0.377,0.092
					c-0.444,0.092,0.432-0.035-0.02-0.006c-0.131,0.008-0.261,0.002-0.392-0.005c-0.45-0.023,0.425,0.085-0.015-0.013
					c-0.106-0.024-0.507-0.184-0.041,0.018c-0.111-0.048-0.564-0.374-0.174-0.06c-0.107-0.086-0.199-0.19-0.29-0.293
					c0.298,0.338,0.019-0.023-0.029-0.112c-0.081-0.149-0.158-0.298-0.231-0.451c0.184,0.391,0.004-0.036-0.02-0.113
					c-0.034-0.109-0.112-0.567-0.038-0.018c-0.016-0.119-0.015-0.239-0.014-0.359c0.003-0.413-0.092,0.446-0.007,0.055
					c0.107-0.493-0.135,0.221,0.003-0.053c0.048-0.096,0.11-0.185,0.172-0.274c-0.302,0.436-0.1,0.143-0.005,0.044
					c0.08-0.083,0.169-0.157,0.257-0.231c-0.401,0.338-0.089,0.077,0.01,0.012c0.213-0.141,0.441-0.259,0.67-0.371
					c0.085-0.041,0.507-0.217,0.046-0.028c0.172-0.071,0.347-0.133,0.522-0.195c2.238-0.789,4.67-1.12,6.975-1.675
					c3.317-0.8,6.607-1.846,9.632-3.448c2.985-1.581,5.663-3.893,7.264-6.902c1.604-3.013,2.35-6.759,1.032-10.013
					c-1.305-3.227-4.166-5.385-7.563-6.037c-2.795-0.536-5.539,0.112-8.172,1.069c-2.197,0.798-4.398,1.799-6.295,3.182
					c-1.57,1.146-3.315,2.8-2.785,4.951C794.589,469.712,798.206,468.717,797.626,466.368L797.626,466.368z"/>
				<path style="fill:#FF5555;" d="M783.612,459.875c0,17.867-9.547,32.352-21.323,32.352c-1.636,0-3.23-0.279-4.761-0.809
					c-5.103-6.74-8.326-16.66-8.326-27.721c0-2.936,0.228-5.791,0.657-8.529h33.529
					C783.536,456.706,783.612,458.277,783.612,459.875z"/>
				<path style="opacity:0.5;fill:#FC8F35;" d="M753.349,461.805c-1.128,4.084-0.272,8.619,0.855,12.605
					c0.595,2.107,1.374,4.155,2.253,6.159c0.67,1.529,1.433,3.046,2.408,4.407c0.699,0.975,1.908,1.441,3.018,0.791
					c0.965-0.565,1.494-2.039,0.792-3.018c-0.905-1.263-1.615-2.66-2.258-4.07c-0.077-0.168-0.151-0.338-0.225-0.507
					c-0.05-0.115-0.1-0.23-0.149-0.346c0.099,0.235,0.099,0.234,0.001-0.003c-0.2-0.486-0.388-0.977-0.57-1.469
					c-0.355-0.96-0.671-1.935-0.959-2.917c-0.292-0.995-0.54-2.002-0.752-3.016c-0.097-0.466-0.181-0.934-0.258-1.404
					c-0.014-0.087-0.13-0.921-0.064-0.404c-0.034-0.26-0.06-0.521-0.086-0.781c-0.092-0.93-0.119-1.866-0.08-2.799
					c0.008-0.175,0.021-0.351,0.034-0.526c0.009-0.12,0.111-0.886,0.021-0.261c0.062-0.428,0.156-0.85,0.272-1.266
					c0.319-1.158-0.383-2.395-1.541-2.714C754.903,459.945,753.668,460.646,753.349,461.805L753.349,461.805z"/>
			</g>
		</g>
	</g>
</g>
</svg>
